<?xml version="1.0" standalone="no"?>
<!DOCTYPE svg PUBLIC "-//W3C//DTD SVG 1.1//EN" "http://www.w3.org/Graphics/SVG/1.1/DTD/svg11.dtd" >
<svg xmlns="http://www.w3.org/2000/svg">
<metadata>Generated by IcoMoon</metadata>
<defs>
<font id="icomoon" horiz-adv-x="1024">
<font-face units-per-em="1024" ascent="960" descent="-64" />
<missing-glyph horiz-adv-x="1024" />
<glyph unicode="&#x20;" horiz-adv-x="512" d="" />
<glyph unicode="&#xe600;" glyph-name="chevron-left" d="M217.6 448l512 512 112-92.8-419.2-419.2 419.2-419.2-108.8-92.8-515.2 512z" />
<glyph unicode="&#xe601;" glyph-name="chevron, chevron-right" d="M806.4 448l-512-512-112 92.8 419.2 419.2-419.2 419.2 108.8 92.8 515.2-512z" />
<glyph unicode="&#xe602;" glyph-name="menu" d="M176 672v-64h704v64h-704zM176 416h704v64h-704v-64zM176 224h704v64h-704v-64z" />
<glyph unicode="&#xe603;" glyph-name="headset" d="M896 534.4c0 3.2 0 6.4 0 9.6 0 211.2-172.8 384-384 384s-384-172.8-384-384c0-3.2 0-6.4 0-9.6-73.6-25.6-128-96-128-182.4v-128c0-105.6 86.4-192 192-192s192 86.4 192 192v128c0 83.2-54.4 153.6-128 179.2 0 3.2 0 6.4 0 12.8 0 140.8 115.2 256 256 256s256-115.2 256-256c0-3.2 0-6.4 0-12.8-73.6-25.6-128-96-128-179.2v-128c0-105.6 86.4-192 192-192s192 86.4 192 192v128c0 83.2-54.4 153.6-128 182.4zM256 224c0-35.2-28.8-64-64-64s-64 28.8-64 64v128c0 35.2 28.8 64 64 64s64-28.8 64-64v-128zM896 224c0-35.2-28.8-64-64-64s-64 28.8-64 64v128c0 35.2 28.8 64 64 64s64-28.8 64-64v-128z" />
<glyph unicode="&#xe604;" glyph-name="list" d="M576 768h384c35.2 0 64 28.8 64 64s-28.8 64-64 64h-384c-35.2 0-64-28.8-64-64s28.8-64 64-64zM256 384h-128c-70.4 0-128-57.6-128-128v-128c0-70.4 57.6-128 128-128h128c70.4 0 128 57.6 128 128v128c0 70.4-57.6 128-128 128zM192 128c-35.2 0-64 28.8-64 64s28.8 64 64 64c35.2 0 64-28.8 64-64s-28.8-64-64-64zM960 640h-384c-35.2 0-64-28.8-64-64s28.8-64 64-64h384c35.2 0 64 28.8 64 64s-28.8 64-64 64zM960 384h-384c-35.2 0-64-28.8-64-64s28.8-64 64-64h384c35.2 0 64 28.8 64 64s-28.8 64-64 64zM256 896h-128c-70.4 0-128-57.6-128-128v-128c0-70.4 57.6-128 128-128h128c70.4 0 128 57.6 128 128v128c0 70.4-57.6 128-128 128zM192 640c-35.2 0-64 28.8-64 64s28.8 64 64 64c35.2 0 64-28.8 64-64s-28.8-64-64-64zM960 128h-384c-35.2 0-64-28.8-64-64s28.8-64 64-64h384c35.2 0 64 28.8 64 64s-28.8 64-64 64z" />
<glyph unicode="&#xe605;" glyph-name="video" d="M960 128c-22.4 0-124.8 54.4-192 92.8v-28.8c0-70.4-57.6-128-128-128h-448c-70.4 0-128 57.6-128 128v192c-35.2 0-64 28.8-64 64v128c0 35.2 28.8 64 64 64v64c0 70.4 57.6 128 128 128h448c70.4 0 128-57.6 128-128v-28.8c67.2 38.4 169.6 92.8 192 92.8 35.2 0 64-28.8 64-64v-512c0-35.2-28.8-64-64-64zM640 320v320c0 35.2-28.8 64-64 64h-320c-35.2 0-64-28.8-64-64v-384c0-35.2 28.8-64 64-64h320c35.2 0 64 28.8 64 64v64zM896 582.4l-128-51.2v-163.2l128-51.2v265.6z" />
<glyph unicode="&#xe606;" glyph-name="check-alt" d="M512 960c-282.752 0-512-229.248-512-512s229.248-512 512-512 512 229.248 512 512-229.248 512-512 512zM432.64 211.744l-235.584 235.616 90.496 90.496 145.056-145.12 307.744 307.744 90.496-90.496-398.208-398.24z" />
<glyph unicode="&#xe607;" glyph-name="processing" d="M921.6 601.6h-204.8v102.4h114.395c-75.045 93.55-190.171 153.6-319.195 153.6-225.865 0-409.6-183.735-409.6-409.6h-102.4c0 282.77 229.23 512 512 512 167.643 0 316.197-80.823 409.6-205.385v154.185h102.4v-307.2h-102.4zM307.2 294.4v-102.4h-114.249c75.045-93.477 190.098-153.6 319.049-153.6 225.865 0 409.6 183.735 409.6 409.6h102.4c0-282.77-229.23-512-512-512-167.57 0-316.197 80.677-409.6 205.166v-153.966h-102.4v307.2h307.2z" />
<glyph unicode="&#xe608;" glyph-name="arrow-left" d="M938.667 448h-780.8l183.467-183.467-29.867-29.867-213.333 213.333h-12.8v42.667h12.8l213.333 213.333 29.867-29.867-183.467-183.467h780.8v-42.667z" />
<glyph unicode="&#xe609;" glyph-name="arrow-right" d="M85.333 448h780.8l-183.467 183.467 29.867 29.867 213.333-213.333h12.8v-42.667h-12.8l-213.333-213.333-29.867 29.867 183.467 183.467h-780.8v42.667z" />
<glyph unicode="&#xe60a;" glyph-name="plus" d="M992 576h-352v352c0 17.672-14.328 32-32 32h-192c-17.672 0-32-14.328-32-32v-352h-352c-17.672 0-32-14.328-32-32v-192c0-17.672 14.328-32 32-32h352v-352c0-17.672 14.328-32 32-32h192c17.672 0 32 14.328 32 32v352h352c17.672 0 32 14.328 32 32v192c0 17.672-14.328 32-32 32z" />
<glyph unicode="&#xe60b;" glyph-name="chevron-down" d="M512 153.6l-512 512 92.8 112 419.2-419.2 419.2 419.2 92.8-108.8-512-515.2z" />
<glyph unicode="&#xe60c;" glyph-name="chevron-up" d="M512 742.4l512-512-92.8-112-419.2 419.2-419.2-419.2-92.8 108.8 512 515.2z" />
<glyph unicode="&#xe60d;" glyph-name="trash2" d="M128 640v128h192l96 70.4h179.2l108.8-64h192v-128h-768zM768 128c0-38.4-25.6-64-64-64h-384c-38.4 0-64 25.6-64 64v448h512v-448z" />
<glyph unicode="&#xe800;" glyph-name="plus2" d="M512-64v0c-76.8 0-128 51.2-128 128v768c0 76.8 51.2 128 128 128v0c76.8 0 128-51.2 128-128v-768c0-76.8-51.2-128-128-128zM896 320h-768c-76.8 0-128 51.2-128 128v0c0 76.8 51.2 128 128 128h768c76.8 0 128-51.2 128-128v0c0-76.8-51.2-128-128-128z" />
<glyph unicode="&#xe801;" glyph-name="share" horiz-adv-x="1223" d="M1199.761 562.627l-496.716 382.090c-38.209 30.567-91.701 7.642-91.701-38.209v-198.687c-106.985-15.284-649.552-91.701-611.343-756.537 0-15.284 22.925-22.925 30.567-7.642 53.493 106.985 198.687 328.597 580.776 374.448v-198.687c0-45.851 53.493-68.776 91.701-45.851l496.716 382.090c30.567 30.567 30.567 84.060 0 106.985z" />
<glyph unicode="&#xe802;" glyph-name="plus-circle" d="M726 384.667v84h-172v172h-84v-172h-172v-84h172v-172h84v172h172zM512 852.667q176 0 301-125t125-301-125-301-301-125-301 125-125 301 125 301 301 125z" />
<glyph unicode="&#xe803;" glyph-name="check-circle" d="M512 960c-281.6 0-512-230.4-512-512s230.4-512 512-512 512 230.4 512 512-230.4 512-512 512zM448 268.8v0l-185.6 192 44.8 44.8 140.8-147.2 268.8 268.8 44.8-44.8-313.6-313.6z" />
<glyph unicode="&#xe804;" glyph-name="trash" horiz-adv-x="951" d="M906.971 755.2h-226.743v160.914c0 21.943-21.943 43.886-43.886 43.886h-314.514c-29.257 0-51.2-21.943-51.2-43.886v-160.914h-226.743c-21.943 0-43.886-21.943-43.886-43.886s21.943-43.886 43.886-43.886h73.143v-680.229c0-29.257 21.943-43.886 43.886-43.886h621.714c29.257 0 43.886 21.943 43.886 43.886v672.914h73.143c29.257 0 43.886 21.943 43.886 43.886 7.314 29.257-14.629 51.2-36.571 51.2zM365.714 864.914h219.429v-109.714h-219.429v109.714zM738.743 31.086h-526.629v629.029h526.629v-629.029zM577.829 82.286c-29.257 0-43.886 21.943-43.886 43.886v431.543c0 29.257 21.943 43.886 43.886 43.886 29.257 0 43.886-21.943 43.886-43.886v-424.229c7.314-29.257-14.629-51.2-43.886-51.2zM373.029 82.286c-29.257 0-43.886 21.943-43.886 43.886v431.543c0 29.257 21.943 43.886 43.886 43.886 29.257 0 43.886-21.943 43.886-43.886v-424.229c0-29.257-21.943-51.2-43.886-51.2z" />
<glyph unicode="&#xe805;" glyph-name="logo" horiz-adv-x="787" d="M10.779 960h754.526v-129.347h-754.526v129.347zM388.042 733.642c-226.358 0-388.042-172.463-388.042-398.821 0-237.137 172.463-398.821 388.042-398.821 150.905 0 237.137 107.789 237.137 107.789v-86.232h161.684v377.263c0 226.358-172.463 398.821-398.821 398.821zM388.042 76.126c-129.347 0-226.358 107.789-226.358 258.695s107.789 258.695 226.358 258.695c129.347 0 237.137-107.789 237.137-258.695s-107.789-258.695-237.137-258.695z" />
<glyph unicode="&#xe900;" glyph-name="tick" d="M1011.2 713.6l-640-640c-12.8-12.8-32-12.8-44.8 0 0 0 0 0 0 0s0 0 0 0l-316.8 316.8c-12.8 12.8-12.8 32 0 44.8s32 12.8 44.8 0l294.4-294.4 617.6 617.6c12.8 12.8 32 12.8 44.8 0s12.8-32 0-44.8z" />
<glyph unicode="&#xe901;" glyph-name="check" d="M1008 748.8l-572.8-710.4-435.2 406.4 169.6 160 243.2-243.2 438.4 502.4 156.8-115.2z" />
<glyph unicode="&#xe902;" glyph-name="desktop" d="M735.232 333.312v309.248h-399.36v-309.248h190.464v-59.392h-108.544v-20.48h237.568v20.48h-108.544v59.392h188.416zM356.352 622.080h358.4v-268.288h-358.4v268.288z" />
<glyph unicode="&#xe903;" glyph-name="expressions" d="M411.648 534.016c0-10.18-8.252-18.432-18.432-18.432s-18.432 8.252-18.432 18.432c0 10.18 8.252 18.432 18.432 18.432s18.432-8.252 18.432-18.432zM745.472 595.456c-10.24 6.144-22.528 4.096-32.768-2.048-32.768-24.576-73.728-34.816-112.64-32.768v102.4c0 12.288-6.144 22.528-16.384 28.672s-22.528 4.096-32.768-2.048c-59.392-45.056-141.312-45.056-200.704 0-10.24 6.144-22.528 8.192-32.768 2.048s-16.384-16.384-16.384-28.672v-227.328c0-47.104 22.528-92.16 61.44-120.832 26.624-20.48 57.344-28.672 90.112-28.672 8.192 0 14.336 0 22.528 2.048 10.24-26.624 26.624-49.152 51.2-67.584 26.624-20.48 57.344-28.672 90.112-28.672s63.488 10.24 90.112 28.672c36.864 28.672 61.44 73.728 61.44 120.832v225.28c-6.144 12.288-12.288 22.528-22.528 28.672zM460.8 566.784v-126.976c-4.096 0-8.192 0-12.288 0-32.768 0-61.44-18.432-77.824-51.2-2.048-4.096-2.048-6.144 0-10.24 2.048-2.048 6.144-4.096 8.192-4.096h81.92v-36.864c0-12.288 2.048-22.528 4.096-32.768-32.768-4.096-65.536 4.096-94.208 24.576-32.768 24.576-51.2 63.488-51.2 104.448v229.376c0 4.096 2.048 8.192 6.144 10.24 2.048 0 4.096 2.048 4.096 2.048 2.048 0 4.096 0 6.144-2.048 65.536-49.152 159.744-49.152 225.28 0 4.096 2.048 8.192 2.048 10.24 0 4.096-2.048 6.144-6.144 6.144-10.24v-100.352c-22.528 4.096-45.056 14.336-65.536 28.672-10.24 6.144-22.528 8.192-32.768 2.048-10.24-4.096-18.432-14.336-18.432-26.624zM460.8 419.328v-22.528h-61.44c12.288 16.384 30.72 24.576 49.152 24.576 4.096 0 8.192 0 12.288-2.048zM741.376 339.456c0-40.96-20.48-79.872-51.2-104.448-45.056-34.816-108.544-34.816-155.648 0-18.432 14.336-32.768 32.768-43.008 55.296-2.048 4.096-2.048 8.192-4.096 10.24-2.048 8.192-4.096 14.336-4.096 22.528 0 4.096 0 10.24 0 14.336v229.376c0 4.096 2.048 8.192 6.144 10.24 2.048 0 4.096 2.048 4.096 2.048 2.048 0 4.096 0 6.144-2.048 22.528-16.384 49.152-28.672 75.776-32.768 6.144-2.048 14.336-2.048 20.48-2.048 2.048 0 2.048 0 4.096 0 43.008-2.048 88.064 8.192 124.928 36.864 4.096 2.048 8.192 2.048 10.24 0 4.096-2.048 6.144-6.144 6.144-10.24v-229.376zM573.44 439.808c0-10.18-8.252-18.432-18.432-18.432s-18.432 8.252-18.432 18.432c0 10.18 8.252 18.432 18.432 18.432s18.432-8.252 18.432-18.432zM686.080 439.808c0-10.18-8.252-18.432-18.432-18.432s-18.432 8.252-18.432 18.432c0 10.18 8.252 18.432 18.432 18.432s18.432-8.252 18.432-18.432zM679.936 335.36h-137.216c-4.096 0-6.144-2.048-8.192-4.096-2.048-4.096-2.048-6.144 0-10.24 16.384-32.768 45.056-51.2 77.824-51.2s61.44 18.432 77.824 51.2c2.048 4.096 2.048 6.144 0 10.24-2.048 2.048-6.144 4.096-10.24 4.096zM612.352 288.256c-18.432 0-36.864 8.192-49.152 24.576h100.352c-14.336-14.336-32.768-24.576-51.2-24.576z" />
<glyph unicode="&#xe904;" glyph-name="poses" d="M538.624 708.096c16.384 0 30.72-14.336 30.72-30.72s-14.336-30.72-30.72-30.72-30.72 14.336-30.72 30.72 12.288 30.72 30.72 30.72zM538.624 728.576c-28.672 0-51.2-22.528-51.2-51.2s22.528-51.2 51.2-51.2 51.2 22.528 51.2 51.2-24.576 51.2-51.2 51.2v0zM512 179.712h-20.48v182.272c0 4.096-4.096 8.192-8.192 8.192-14.336 0-28.672 12.288-28.672 28.672v159.744c0 18.432 14.336 32.768 32.768 32.768h98.304c18.432 0 32.768-14.336 32.768-32.768v-159.744c0-14.336-12.288-28.672-28.672-28.672-4.096 0-8.192-4.096-8.192-8.192v-182.272h-20.48v182.272c0 14.336 12.288 28.672 28.672 28.672 4.096 0 8.192 4.096 8.192 8.192v159.744c0 6.144-6.144 12.288-12.288 12.288h-98.304c-6.144 0-12.288-6.144-12.288-12.288v-159.744c0-4.096 4.096-8.192 8.192-8.192 14.336 0 28.672-12.288 28.672-28.672v-182.272z" />
<glyph unicode="&#xe905;" glyph-name="retina" d="M555.008 646.656c-94.208 0-172.032-77.824-172.032-172.032 0-8.192 0-16.384 2.048-22.528h-63.488v-215.040h215.040v67.584c6.144 0 12.288-2.048 18.432-2.048 94.208 0 172.032 77.824 172.032 172.032 0 96.256-77.824 172.032-172.032 172.032zM516.096 257.536h-174.080v174.080h47.104c16.384-61.44 65.536-108.544 126.976-122.88v-51.2zM593.92 331.264c-12.288-4.096-26.624-6.144-38.912-6.144-83.968 0-151.552 67.584-151.552 151.552 0 12.288 2.048 24.576 4.096 34.816h22.528c-4.096-12.288-6.144-26.624-6.144-40.96h20.48c0 14.336 2.048 26.624 8.192 40.96h141.312v-180.224zM614.4 337.408v194.56h-151.552c20.48 32.768 55.296 53.248 96.256 53.248v20.48c-53.248 0-98.304-30.72-120.832-73.728h-24.576c22.528 55.296 75.776 96.256 141.312 96.256 83.968 0 151.552-67.584 151.552-151.552 0-63.488-38.912-116.736-92.16-139.264z" />
<glyph unicode="&#xe906;" glyph-name="scenarios" d="M634.88 237.056h-317.44v317.44h317.44v-317.44zM337.92 257.536h276.48v276.48h-276.48v-276.48zM679.936 294.4h-20.48v284.672h-284.672v20.48h305.152zM727.040 341.504h-20.48v284.672h-284.672v20.48h305.152z" />
<glyph unicode="&#xe907;" glyph-name="transparency" d="M626.688 550.4c-20.48 63.488-77.824 108.544-147.456 108.544-86.016 0-153.6-69.632-153.6-153.6 0-69.632 45.056-126.976 108.544-147.456 20.48-63.488 77.824-108.544 147.456-108.544 86.016 0 153.6 69.632 153.6 153.6-2.048 69.632-47.104 129.024-108.544 147.456zM446.464 404.992c0 6.144 0 12.288 2.048 18.432l49.152-49.152c-6.144 0-12.288-2.048-18.432-2.048-10.24 0-20.48 2.048-28.672 4.096-4.096 8.192-4.096 18.432-4.096 28.672zM520.192 378.368l-67.584 67.584c2.048 8.192 6.144 18.432 12.288 26.624l81.92-81.92c-8.192-6.144-18.432-10.24-26.624-12.288zM563.2 400.896l-88.064 88.064c6.144 6.144 12.288 14.336 18.432 18.432l86.016-86.016c-4.096-8.192-10.24-14.336-16.384-20.48zM593.92 437.76l-81.92 81.92c8.192 4.096 16.384 8.192 26.624 12.288l67.584-67.584c-4.096-10.24-8.192-18.432-12.288-26.624zM612.352 505.344c0-6.144 0-12.288-2.048-18.432l-49.152 49.152c6.144 0 12.288 2.048 18.432 2.048 10.24 0 20.48-2.048 28.672-4.096 2.048-8.192 4.096-18.432 4.096-28.672zM579.584 269.824c-55.296 0-102.4 34.816-122.88 81.92 8.192-2.048 14.336-2.048 22.528-2.048 86.016 0 153.6 69.632 153.6 153.6 0 8.192 0 14.336-2.048 22.528 49.152-20.48 81.92-67.584 81.92-122.88 0-71.68-59.392-133.12-133.12-133.12z" />
<glyph unicode="&#xe908;" glyph-name="customizable" d="M684.032 499.2l-14.336-14.336 24.576-24.576h-159.744v159.744l24.576-26.624 14.336 14.336-49.152 51.2-49.152-51.2 14.336-14.336 24.576 26.624v-159.744h-159.744l24.576 24.576-14.336 14.336-49.152-49.152 49.152-51.2 14.336 14.336-24.576 26.624h159.744v-159.744l-24.576 24.576-14.336-14.336 49.152-49.152 49.152 49.152-14.336 14.336-24.576-24.576v159.744h159.744l-24.576-26.624 14.336-14.336 49.152 51.2z" />
<glyph unicode="&#xe909;" glyph-name="design" d="M358.4 462.336c-20.48 0-36.864-16.384-36.864-36.864s16.384-36.864 36.864-36.864 36.864 16.384 36.864 36.864c0 20.48-16.384 36.864-36.864 36.864zM358.4 409.088c-8.192 0-16.384 6.144-16.384 16.384s6.144 16.384 16.384 16.384 16.384-6.144 16.384-16.384-8.192-16.384-16.384-16.384zM780.288 626.176c0 8.192-2.048 14.336-8.192 20.48-10.24 10.24-28.672 10.24-38.912 0l-94.208-94.208c-38.912 28.672-88.064 47.104-143.36 49.152-32.768 2.048-53.248-24.576-55.296-77.824 0-12.288-4.096-22.528-12.288-26.624-12.288-8.192-30.72-4.096-47.104 0-14.336 6.144-47.104 8.192-69.632-8.192-12.288-8.192-26.624-24.576-26.624-57.344 0-94.208 94.208-172.032 210.944-172.032s210.944 77.824 210.944 172.032c0 28.672-10.24 57.344-26.624 83.968l96.256 96.256c2.048 0 4.096 8.192 4.096 14.336zM684.032 429.568c0-83.968-86.016-151.552-190.464-151.552s-190.464 67.584-190.464 151.552c0 18.432 6.144 32.768 18.432 40.96 16.384 10.24 38.912 10.24 51.2 6.144s43.008-12.288 63.488 2.048c12.288 8.192 20.48 22.528 22.528 43.008 4.096 61.44 24.576 59.392 34.816 59.392 49.152-2.048 96.256-18.432 131.072-43.008l-77.824-77.824c-8.192 0-18.432-2.048-28.672-10.24-22.528-22.528 4.096-45.056-34.816-77.824-2.048-2.048-2.048-6.144 2.048-6.144 12.288-4.096 38.912-6.144 69.632 14.336 22.528 14.336 30.72 30.72 30.72 43.008l77.824 77.824c12.288-24.576 20.48-47.104 20.48-71.68zM757.76 622.080l-174.080-174.080-10.24 10.24 174.080 174.080c2.048 2.048 8.192 2.048 10.24 0v0c2.048-2.048 2.048-4.096 2.048-4.096 0-2.048 0-4.096-2.048-6.144z" />
<glyph unicode="&#xe90a;" glyph-name="interactions" d="M694.272 380.416c-22.528 0-40.96-16.384-45.056-36.864-73.728 0-108.544 67.584-141.312 135.168-20.48 40.96-36.864 71.68-57.344 92.16h198.656c4.096-20.48 22.528-36.864 45.056-36.864 26.624 0 47.104 20.48 47.104 47.104s-20.48 47.104-47.104 47.104c-22.528 0-40.96-16.384-45.056-36.864h-245.76c-4.096 20.48-22.528 36.864-45.056 36.864-26.624 0-47.104-20.48-47.104-47.104s20.48-47.104 47.104-47.104c22.528 0 40.96 14.336 45.056 34.816 30.72 0 51.2-30.72 86.016-102.4 34.816-67.584 73.728-143.36 159.744-145.408 4.096-20.48 22.528-36.864 45.056-36.864 26.624 0 47.104 20.48 47.104 47.104s-22.528 49.152-47.104 49.152zM694.272 605.696c14.336 0 26.624-12.288 26.624-26.624s-12.288-26.624-26.624-26.624-26.624 12.288-26.624 26.624c0 16.384 12.288 26.624 26.624 26.624zM358.4 554.496c-14.336 0-26.624 12.288-26.624 26.624s12.288 26.624 26.624 26.624 26.624-12.288 26.624-26.624c-2.048-14.336-12.288-26.624-26.624-26.624zM694.272 306.688c-14.336 0-26.624 12.288-26.624 26.624s12.288 26.624 26.624 26.624 26.624-12.288 26.624-26.624-12.288-26.624-26.624-26.624z" />
<glyph unicode="&#xe90b;" glyph-name="questions" d="M460.8 599.552v-63.488h284.672v63.488h-284.672zM724.992 554.496h-243.712v22.528h243.712v-22.528zM417.792 566.784c0-24.884-20.172-45.056-45.056-45.056s-45.056 20.172-45.056 45.056c0 24.884 20.172 45.056 45.056 45.056s45.056-20.172 45.056-45.056zM460.8 404.992h284.672v63.488h-284.672v-63.488zM481.28 448h243.712v-22.528h-243.712v22.528zM372.736 482.816c-24.576 0-45.056-20.48-45.056-45.056s20.48-45.056 45.056-45.056 45.056 20.48 45.056 45.056c0 24.576-20.48 45.056-45.056 45.056zM372.736 411.136c-14.336 0-24.576 10.24-24.576 24.576s10.24 24.576 24.576 24.576 24.576-10.24 24.576-24.576c0-12.288-12.288-24.576-24.576-24.576zM460.8 282.112h284.672v63.488h-284.672v-63.488zM481.28 325.12h243.712v-22.528h-243.712v22.528zM372.736 359.936c-24.576 0-45.056-20.48-45.056-45.056s20.48-45.056 45.056-45.056 45.056 20.48 45.056 45.056-20.48 45.056-45.056 45.056zM372.736 290.304c-14.336 0-24.576 10.24-24.576 24.576s10.24 24.576 24.576 24.576 24.576-10.24 24.576-24.576c0-14.336-12.288-24.576-24.576-24.576z" />
<glyph unicode="&#xe90c;" glyph-name="scenarios2" d="M634.88 237.056h-317.44v317.44h317.44v-317.44zM337.92 257.536h276.48v276.48h-276.48v-276.48zM679.936 294.4h-20.48v284.672h-284.672v20.48h305.152zM727.040 341.504h-20.48v284.672h-284.672v20.48h305.152z" />
<glyph unicode="&#xe90d;" glyph-name="slides" d="M716.8 599.552v73.728h-462.848v-356.352h73.728v-73.728h462.848v356.352h-73.728zM274.432 339.456v315.392h421.888v-53.248h-366.592v-260.096h-55.296zM696.32 579.072v-239.616h-346.112v239.616h346.112zM770.048 265.728h-419.84v53.248h366.592v260.096h53.248v-313.344z" />
<glyph unicode="&#xe90e;" glyph-name="mute" d="M921.6 307.2l-44.8-44.8-140.8 140.8-140.8-140.8-44.8 44.8 140.8 140.8-140.8 140.8 44.8 44.8 140.8-140.8 140.8 140.8 44.8-44.8-140.8-140.8 140.8-140.8zM192 576l256 192v-640l-256 192v256zM0 576h128v-256h-128v256z" />
<glyph unicode="&#xe90f;" glyph-name="volume" d="M512 128v64c153.6 0 262.4 96 262.4 256s-108.8 256-262.4 256v64c185.6 0 326.4-121.6 326.4-320 0-192-140.8-320-326.4-320zM192 576l256 192v-640l-256 192v256zM0 576h128v-256h-128v256zM691.2 448c0-108.8-70.4-192-179.2-192v64c76.8 0 115.2 51.2 115.2 128s-115.2 128-115.2 128v64c108.8 0 179.2-76.8 179.2-192z" />
<glyph unicode="&#xe910;" glyph-name="feedback" horiz-adv-x="1148" d="M718.452 960h-289.032c-239.484 0-429.419-189.935-429.419-429.419 0-165.161 90.839-305.548 222.968-371.613 24.774-82.581 8.258-140.387-8.258-181.677-16.516-24.774 8.258-49.548 41.29-41.29 123.871 41.29 181.677 115.613 206.452 173.419h256c239.484 0 429.419 189.935 429.419 429.419 0 231.226-189.935 421.161-429.419 421.161z" />
<glyph unicode="&#xe911;" glyph-name="review" horiz-adv-x="1334" d="M1241.212 525.576v279.273c0 85.333-69.818 155.152-155.152 155.152h-930.909c-85.333 0-155.152-69.818-155.152-155.152v-620.606c0-85.333 69.818-155.152 155.152-155.152h589.576c62.061-54.303 147.394-93.091 232.727-93.091 193.939 0 349.091 155.152 349.091 349.091 7.758 93.091-31.030 178.424-85.333 240.485zM155.152 254.061v480.97c0 38.788 31.030 69.818 69.818 69.818h791.273c38.788 0 69.818-31.030 69.818-69.818v-108.606c-31.030 7.758-69.818 15.515-108.606 15.515-193.939 0-349.091-155.152-349.091-349.091 0-38.788 7.758-69.818 15.515-108.606h-418.909c-38.788 0-69.818 31.030-69.818 69.818zM1155.879 269.576l-232.727-155.152c-15.515-15.515-46.545 0-46.545 23.273v310.303c0 23.273 23.273 38.788 46.545 23.273l232.727-155.152c15.515-15.515 15.515-38.788 0-46.545z" />
<glyph unicode="&#xe912;" glyph-name="sort-alpha-asc" d="M320 192v768h-128v-768h-160l224-224 224 224h-160zM928-64h-256c-11.8 0-22.644 6.496-28.214 16.9-5.566 10.404-4.958 23.030 1.59 32.85l222.832 334.25h-196.208c-17.672 0-32 14.328-32 32s14.328 32 32 32h256c11.8 0 22.644-6.496 28.214-16.9 5.566-10.404 4.958-23.030-1.59-32.85l-222.83-334.25h196.206c17.672 0 32-14.328 32-32s-14.328-32-32-32zM1020.622 558.314l-192.002 384c-5.42 10.842-16.502 17.69-28.622 17.69-12.122 0-23.202-6.848-28.624-17.69l-191.996-384c-7.904-15.806-1.496-35.030 14.31-42.932 4.594-2.296 9.476-3.386 14.288-3.386 11.736 0 23.040 6.484 28.644 17.698l55.156 110.31h216.446l55.156-110.31c7.902-15.806 27.124-22.21 42.932-14.31 15.808 7.902 22.216 27.124 14.312 42.93zM723.778 704.004l76.22 152.446 76.224-152.446h-152.444z" />
<glyph unicode="&#xe913;" glyph-name="cross" d="M1014.662 137.34c-0.004 0.004-0.008 0.008-0.012 0.010l-310.644 310.65 310.644 310.65c0.004 0.004 0.008 0.006 0.012 0.010 3.344 3.346 5.762 7.254 7.312 11.416 4.246 11.376 1.824 24.682-7.324 33.83l-146.746 146.746c-9.148 9.146-22.45 11.566-33.828 7.32-4.16-1.55-8.070-3.968-11.418-7.31 0-0.004-0.004-0.006-0.008-0.010l-310.648-310.652-310.648 310.65c-0.004 0.004-0.006 0.006-0.010 0.010-3.346 3.342-7.254 5.76-11.414 7.31-11.38 4.248-24.682 1.826-33.83-7.32l-146.748-146.748c-9.148-9.148-11.568-22.452-7.322-33.828 1.552-4.16 3.97-8.072 7.312-11.416 0.004-0.002 0.006-0.006 0.010-0.010l310.65-310.648-310.65-310.652c-0.002-0.004-0.006-0.006-0.008-0.010-3.342-3.346-5.76-7.254-7.314-11.414-4.248-11.376-1.826-24.682 7.322-33.83l146.748-146.746c9.15-9.148 22.452-11.568 33.83-7.322 4.16 1.552 8.070 3.97 11.416 7.312 0.002 0.004 0.006 0.006 0.010 0.010l310.648 310.65 310.648-310.65c0.004-0.002 0.008-0.006 0.012-0.008 3.348-3.344 7.254-5.762 11.414-7.314 11.378-4.246 24.684-1.826 33.828 7.322l146.746 146.748c9.148 9.148 11.57 22.454 7.324 33.83-1.552 4.16-3.97 8.068-7.314 11.414z" />
<glyph unicode="&#xe914;" glyph-name="pie-chart" d="M549.312-64c-261.728 0-455.904 192.288-455.904 454.048 0 17.664 14.336 32 32 32s32-14.336 32-32c0-226.464 165.472-390.048 391.904-390.048 226.464 0 410.688 184.224 410.688 410.688 0 226.432-157.952 391.904-384.416 391.904-17.664 0-32 14.336-32 32s14.336 32 32 32c261.728 0 448.416-194.176 448.416-455.904 0-261.76-212.928-474.688-474.688-474.688zM448.256 479.744c0 0-416.256 0-416.256 0-17.664 0-32 14.336-32 32 0 249.248 199.008 448.256 448.256 448.256 17.664 0 32-14.336 32-32 0 0 0-416.256 0-416.256 0-17.664-14.336-32-32-32zM416.256 894.688c-188.48-15.456-335.488-162.464-350.944-350.944 0 0 350.944 0 350.944 0s0 350.944 0 350.944z" />
<glyph unicode="&#xe915;" glyph-name="clock" d="M622.058 270.058l-158.058 158.058v211.882h96v-172.118l129.942-129.942zM512 832c-212.078 0-384-171.922-384-384s171.922-384 384-384 384 171.922 384 384-171.922 384-384 384zM512 160c-159.058 0-288 128.942-288 288s128.942 288 288 288c159.058 0 288-128.942 288-288s-128.942-288-288-288z" />
<glyph unicode="&#xe916;" glyph-name="list-numbered" d="M384 128h640v-128h-640zM384 512h640v-128h-640zM384 896h640v-128h-640zM192 960v-256h-64v192h-64v64zM128 434v-50h128v-64h-192v146l128 60v50h-128v64h192v-146zM256 256v-320h-192v64h128v64h-128v64h128v64h-128v64z" />
<glyph unicode="&#xe917;" glyph-name="list2" d="M384 896h640v-128h-640v128zM384 512h640v-128h-640v128zM384 128h640v-128h-640v128zM0 832c0 70.692 57.308 128 128 128s128-57.308 128-128c0-70.692-57.308-128-128-128s-128 57.308-128 128zM0 448c0 70.692 57.308 128 128 128s128-57.308 128-128c0-70.692-57.308-128-128-128s-128 57.308-128 128zM0 64c0 70.692 57.308 128 128 128s128-57.308 128-128c0-70.692-57.308-128-128-128s-128 57.308-128 128z" />
<glyph unicode="&#xe918;" glyph-name="quotes-left" d="M225 512c123.712 0 224-100.29 224-224 0-123.712-100.288-224-224-224s-224 100.288-224 224l-1 32c0 247.424 200.576 448 448 448v-128c-85.474 0-165.834-33.286-226.274-93.726-11.634-11.636-22.252-24.016-31.83-37.020 11.438 1.8 23.16 2.746 35.104 2.746zM801 512c123.71 0 224-100.29 224-224 0-123.712-100.29-224-224-224s-224 100.288-224 224l-1 32c0 247.424 200.576 448 448 448v-128c-85.474 0-165.834-33.286-226.274-93.726-11.636-11.636-22.254-24.016-31.832-37.020 11.44 1.8 23.16 2.746 35.106 2.746z" />
<glyph unicode="&#xe919;" glyph-name="link-alt" d="M972.8 825.6l-86.4 86.4c-64 64-172.8 67.2-236.8 3.2l-92.8-92.8c-12.8-12.8-12.8-35.2 0-48 6.4-6.4 16-9.6 22.4-9.6 9.6 0 16 3.2 22.4 9.6l92.8 92.8c41.6 38.4 108.8 35.2 147.2-3.2l86.4-86.4c38.4-38.4 41.6-105.6 3.2-144l-291.2-291.2c-38.4-38.4-118.4-44.8-153.6-6.4l-38.4 38.4c0 0-3.2 3.2-3.2 3.2v0l-22.4 22.4c-12.8 12.8-35.2 12.8-48 0s-12.8-35.2 0-48l67.2-67.2c3.2-3.2 3.2-3.2 6.4-3.2 60.8-51.2 160-48 224 6.4v0c3.2 3.2 3.2 6.4 6.4 6.4 0 0 3.2 3.2 3.2 3.2l291.2 291.2c67.2 64 67.2 169.6 0 236.8zM419.2 124.8l-92.8-92.8c-38.4-38.4-102.4-38.4-140.8 0l-89.6 92.8c-38.4 38.4-38.4 102.4 0 140.8l300.8 300.8c38.4 38.4 102.4 38.4 140.8 0l70.4-70.4c6.4-6.4 16-9.6 22.4-9.6 9.6 0 16 3.2 22.4 9.6 12.8 12.8 12.8 35.2 0 48l-70.4 70.4c-64 64-169.6 64-233.6 0l-300.8-300.8c-64-64-64-169.6 0-233.6l92.8-92.8c64-64 169.6-64 233.6 0l92.8 92.8c12.8 12.8 12.8 35.2 0 48-12.8 9.6-35.2 9.6-48-3.2z" />
<glyph unicode="&#xe91a;" glyph-name="rotation" horiz-adv-x="1035" d="M517.5 354.413c-119.117 0-212.398 50.458-212.398 114.849s93.29 114.821 212.398 114.821 212.398-50.441 212.398-114.821c0-36.769-30.58-70.249-83.917-91.861-5.535-2.237-11.809 0.451-14.010 5.926-2.237 5.518 0.434 11.792 5.926 14.010 44.099 17.896 70.436 44.768 70.436 71.907-0.026 50.594-87.424 93.29-190.846 93.29s-190.846-42.704-190.846-93.273 87.407-93.29 190.846-93.29c5.888 0 11.724 0.145 17.485 0.414 5.926 0.689 11.010-4.311 11.248-10.262 0.298-5.945-4.311-10.993-10.262-11.248-6.079-0.298-12.245-0.451-18.474-0.451zM594.296 358.832l-64.902-43.504c-5.093-3.41-11.894 0.234-11.894 6.356v86.999c0 6.122 6.828 9.769 11.894 6.356l64.902-43.504c4.502-3.036 4.502-9.684 0-12.715z" />
<glyph unicode="&#xe91b;" glyph-name="vector" horiz-adv-x="1013" d="M629.731 466.602c-2.455 0-4.892 0.774-6.908 2.234l-156.635 113.376c-5.269 3.819-6.469 11.186-2.643 16.472l55.435 76.579c3.819 5.33 11.186 6.411 16.472 2.643l156.635-113.347c5.286-3.819 6.469-11.203 2.643-16.472l-55.435-76.601c-1.842-2.526-4.6-4.25-7.696-4.746-0.614-0.102-1.228-0.136-1.858-0.136zM489.594 594.423l137.503-99.548 41.608 57.498-137.522 99.53-41.579-57.469zM327.822 214.341c-2.455 0-4.863 0.75-6.908 2.234-3.49 2.526-5.33 6.753-4.792 11.026l33.66 269.383c0.478 3.819 2.76 7.17 6.156 8.969l140.891 75.078c5.681 3.069 12.891 0.92 15.978-4.863 3.069-5.764 0.87-12.908-4.863-15.978l-135.517-72.163-30.215-241.998 220.4 104.357 26.244 151.261c1.108 6.394 7.083 10.909 13.641 9.583 6.394-1.108 10.708-7.229 9.583-13.641l-27.283-157.278c-0.631-3.782-3.086-6.991-6.557-8.631l-245.374-116.18c-1.603-0.774-3.325-1.125-5.047-1.125zM327.822 214.341c-2.41 0-4.808 0.733-6.908 2.234-5.286 3.819-6.469 11.203-2.643 16.472l125.206 172.993c3.819 5.33 11.203 6.394 16.472 2.643 5.286-3.819 6.469-11.203 2.643-16.472l-125.206-172.993c-2.293-3.206-5.917-4.892-9.565-4.892zM490.752 415.892l0.044-0.256c2.575-15.994-8.338-31.064-24.333-33.634l-0.256-0.044c-15.994-2.575-31.064 8.338-33.634 24.333l-0.044 0.256c-2.575 15.994 8.338 31.064 24.333 33.634l0.256 0.044c16.021 2.575 31.064-8.338 33.634-24.333z" />
<glyph unicode="&#xe91c;" glyph-name="sorting" horiz-adv-x="1012" d="M541.583 229.781h-55.291c-6.328 0-11.434 1.571-15.274 4.713-3.884 3.142-6.852 7.069-8.859 11.782l-36.657 97.141h-189.395l-36.657-97.141c-1.659-4.102-4.495-7.855-8.553-11.302-4.102-3.447-9.165-5.193-15.274-5.193h-55.291l174.426 439.885h72.398l174.426-439.885zM255.353 394.738h150.905l-60.484 160.68c-2.444 5.892-4.932 12.961-7.506 21.077-2.531 8.161-5.019 16.932-7.462 26.271-2.444-9.557-4.932-18.373-7.506-26.402-2.531-8.029-4.932-15.143-7.156-21.253l-60.79-160.375zM891.658 669.666v-26.576c0-4.102-0.698-8.073-2.051-11.914-1.266-3.884-3.055-7.549-5.28-10.997l-236.176-332.663h238.925v-57.735h-332.357v28.060c0 3.884 0.611 7.506 1.833 10.866s2.836 6.546 4.888 9.645l236.744 333.579h-230.285v57.735h323.761zM502.875-25.641l-93.039 93.039c-6.939 6.939-6.939 18.154 0 25.093v0c6.939 6.939 18.154 6.939 25.093 0l93.039-93.039c6.939-6.939 6.939-18.154 0-25.093v0c-6.939-6.939-18.154-6.939-25.093 0zM502.919-0.548l93.039 93.039c6.939 6.939 18.154 6.939 25.093 0v0c6.939-6.939 6.939-18.154 0-25.093l-93.039-93.039c-6.939-6.939-18.154-6.939-25.093 0v0c-6.939 6.895-6.939 18.154 0 25.093zM516.404 921.64l93.039-93.039c6.939-6.939 6.939-18.154 0-25.093v0c-6.939-6.939-18.154-6.939-25.093 0l-93.039 93.039c-6.939 6.939-6.939 18.154 0 25.093v0c6.939 6.939 18.154 6.939 25.093 0zM516.36 896.548l-93.039-93.039c-6.939-6.939-18.154-6.939-25.093 0v0c-6.939 6.939-6.939 18.154 0 25.093l93.039 93.039c6.939 6.939 18.154 6.939 25.093 0v0c6.939-6.939 6.939-18.154 0-25.093z" />
<glyph unicode="&#xe91d;" glyph-name="more" horiz-adv-x="1018" d="M842.063 538.224c52.982 0 95.927-40.386 95.927-90.224s-42.946-90.224-95.927-90.224c-52.982 0-95.927 40.386-95.927 90.224s42.946 90.224 95.927 90.224zM637 448c0-53.020-42.98-96-96-96s-96 42.98-96 96c0 53.021 42.979 96 96 96s96-42.979 96-96zM335.648 448c0-52.919-42.899-95.819-95.819-95.819s-95.819 42.899-95.819 95.819c0 52.919 42.899 95.818 95.819 95.818s95.819-42.898 95.819-95.818z" />
<glyph unicode="&#xe91e;" glyph-name="microphone" horiz-adv-x="731" d="M373.029 265.143h-7.314c-98.743-3.657-179.2 73.143-182.857 171.886 0 3.657 0 3.657 0 7.314v325.486c-3.657 102.4 80.457 186.514 182.857 190.171h7.314c98.743-3.657 179.2-87.771 175.543-186.514 0 0 0-3.657 0-3.657v-325.486c3.657-95.086-69.486-175.543-164.571-179.2-3.657 0-7.314 0-10.971 0zM365.714 886.857c-62.171-3.657-109.714-54.857-109.714-117.029v-325.486c0-58.514 43.886-106.057 98.743-106.057 3.657 0 7.314 0 10.971 0h7.314c54.857-3.657 98.743 40.229 102.4 95.086 0 3.657 0 7.314 0 10.971v325.486c3.657 58.514-40.229 113.371-98.743 117.029 0 0-3.657 0-3.657 0h-7.314zM420.571 82.286h-109.714c-204.8 0-310.857 146.286-310.857 394.971v7.314c0 21.943 14.629 36.571 36.571 36.571s36.571-14.629 36.571-36.571v-7.314c0-146.286 29.257-321.829 237.714-321.829h109.714c160.914 0 237.714 106.057 237.714 321.829v7.314c0 21.943 14.629 36.571 36.571 36.571s36.571-14.629 36.571-36.571v-7.314c0-325.486-168.229-394.971-310.857-394.971v0zM329.143 118.857h73.143v-182.857h-73.143v182.857zM146.286 9.143h438.857c21.943 0 36.571-14.629 36.571-36.571s-14.629-36.571-36.571-36.571h-438.857c-21.943 0-36.571 14.629-36.571 36.571s14.629 36.571 36.571 36.571z" />
<glyph unicode="&#xe91f;" glyph-name="photo" horiz-adv-x="1346" d="M1223.904 796.813h-106.072l-97.912 163.187h-489.562l-97.912-163.187-146.869-4.080-81.594-36.717v-248.861h81.594v203.984l146.869 4.080h44.876l97.912 163.187h399.809l97.912-163.187h44.876l146.869-4.080v-448.765c-4.080-20.398-20.398-32.637-36.717-40.797h-656.829v-81.594h656.829c65.275 4.080 114.231 57.116 118.311 122.39v493.641c0 40.797-40.797 40.797-122.39 40.797zM979.124 507.155c0 114.231-89.753 203.984-203.984 203.984s-203.984-89.753-203.984-203.984 89.753-203.984 203.984-203.984 203.984 89.753 203.984 203.984zM652.749 507.155c-8.159 61.195 32.637 114.231 93.833 122.39 8.159 0 20.398 0 28.558 0 69.355 0 122.39-57.116 122.39-122.39s-53.036-122.39-122.39-122.39-122.39 53.036-122.39 122.39zM489.562 221.578v-81.594h-203.984v-203.984h-81.594v203.984h-203.984v81.594h203.984v203.984h81.594v-203.984z" />
<glyph unicode="&#xe920;" glyph-name="marker_style" d="M512-64c-281.6 0-512 230.4-512 512s230.4 512 512 512 512-230.4 512-512-230.4-512-512-512zM512 896c-246.4 0-448-201.6-448-448s201.6-448 448-448 448 201.6 448 448-201.6 448-448 448zM640 448c0-16-16-32-32-32h-64v-64c0-16-16-32-32-32s-32 16-32 32v64h-64c-16 0-32 16-32 32s16 32 32 32h64v64c0 16 16 32 32 32s32-16 32-32v-64h64c16 0 32-16 32-32z" />
<glyph unicode="&#xe921;" glyph-name="trashcan" horiz-adv-x="1019" d="M169.096 20.888c-0.169-1.936-0.266-4.188-0.266-6.463 0-43.46 35.231-78.691 78.691-78.691 2.275 0 4.527 0.097 6.753 0.286l509.036-0.020c1.908-0.164 4.128-0.258 6.37-0.258 43.507 0 78.776 35.269 78.776 78.776 0 2.242-0.094 4.462-0.277 6.657l0.019 593.927h-679.101v-594.214zM763.31 869.764l-140.998 87.859-237.685 2.801-130.303-90.575h-254.663v-169.775h1018.652v169.775h-254.663z" />
<glyph unicode="&#xe922;" glyph-name="Master-09" d="M606.080 136.96c5.428-5.355 12.888-8.662 21.12-8.662s15.692 3.307 21.123 8.665l-0.003-0.003 43.52 46.080c5.734 5.969 9.265 14.092 9.265 23.040s-3.531 17.071-9.276 23.051l-209.269 218.869 212.48 220.16c5.734 5.969 9.265 14.092 9.265 23.040s-3.531 17.071-9.276 23.051l-43.509 46.069c-5.428 5.355-12.888 8.662-21.12 8.662s-15.692-3.307-21.123-8.665l0.003 0.003-280.32-290.56c-5.594-6.030-9.026-14.134-9.026-23.040s3.432-17.010 9.046-23.062z" />
<glyph unicode="&#xe923;" glyph-name="Master-13" d="M275.84 244.48c-0.005-0.199-0.007-0.432-0.007-0.667 0-16.165 12.751-29.352 28.744-30.051l0.063-0.002h64c17.879 0.347 32.288 14.754 32.639 32.607l7.041 304.033 305.92 5.12c17.879 0.347 32.288 14.754 32.639 32.607l0.001 64.033c0.005 0.199 0.007 0.432 0.007 0.667 0 16.165-12.751 29.352-28.744 30.051l-0.063 0.002-401.28-7.68c-18.467-0.346-33.304-15.397-33.304-33.914 0-0.452 0.009-0.902 0.026-1.35z" />
<glyph unicode="&#xe924;" glyph-name="Master-11" d="M200.96 353.92c-5.511-5.356-8.93-12.839-8.93-21.12s3.419-15.764 8.923-21.113l0.007-0.007 46.080-43.52c5.969-5.734 14.092-9.265 23.040-9.265s17.071 3.531 23.051 9.276l218.869 209.269 220.16-212.48c5.969-5.734 14.092-9.265 23.040-9.265s17.071 3.531 23.051 9.276l46.069 43.509c5.355 5.428 8.662 12.888 8.662 21.12s-3.307 15.692-8.665 21.123l0.003-0.003-290.56 280.32c-6.030 5.594-14.134 9.026-23.040 9.026s-17.010-3.432-23.062-9.046z" />
<glyph unicode="&#xe925;" glyph-name="Master-14" d="M244.48 684.16c-0.199 0.005-0.432 0.007-0.667 0.007-16.165 0-29.352-12.751-30.051-28.744s-0.002-0.063-0.002-0.063v-64c0.347-17.879 14.754-32.288 32.607-32.639l304.033-7.041 5.12-305.92c0.347-17.879 14.754-32.288 32.607-32.639l64.033-0.001c0.199-0.005 0.432-0.007 0.667-0.007 16.165 0 29.352 12.751 30.051 28.744s0.002 0.063 0.002 0.063l-7.68 401.92c-0.694 18.186-15.605 32.665-33.897 32.665-0.458 0-0.915-0.009-1.368-0.027z" />
<glyph unicode="&#xe926;" glyph-name="Master-10" d="M417.92 759.040c-5.428 5.355-12.888 8.662-21.12 8.662s-15.692-3.307-21.123-8.665l0.003 0.003-43.52-46.080c-5.734-5.969-9.265-14.092-9.265-23.040s3.531-17.071 9.276-23.051l209.269-218.869-212.48-218.88c-5.734-5.969-9.265-14.092-9.265-23.040s3.531-17.071 9.276-23.051l43.509-46.069c5.428-5.355 12.888-8.662 21.12-8.662s15.692 3.307 21.123 8.665l-0.003-0.003 278.4 289.28c5.594 6.030 9.026 14.134 9.026 23.040s-3.432 17.010-9.046 23.062z" />
<glyph unicode="&#xe927;" glyph-name="Master-16" d="M748.16 651.52c0.005 0.199 0.007 0.432 0.007 0.667 0 16.165-12.751 29.352-28.744 30.051l-0.063 0.002h-64c-17.879-0.347-32.288-14.754-32.639-32.607l-7.041-304.033-305.92-5.12c-17.879-0.347-32.288-14.754-32.639-32.607l-0.001-64.033c-0.005-0.199-0.007-0.432-0.007-0.667 0-16.165 12.751-29.352 28.744-30.051l0.063-0.002 401.28 7.68c18.467 0.346 33.304 15.397 33.304 33.914 0 0.452-0.009 0.902-0.026 1.35z" />
<glyph unicode="&#xe928;" glyph-name="Master-12" d="M823.040 542.080c5.355 5.428 8.662 12.888 8.662 21.12s-3.307 15.692-8.665 21.123l0.003-0.003-46.080 43.52c-5.969 5.734-14.092 9.265-23.040 9.265s-17.071-3.531-23.051-9.276l-218.869-209.269-218.88 212.48c-5.969 5.734-14.092 9.265-23.040 9.265s-17.071-3.531-23.051-9.276l-46.069-43.509c-5.355-5.428-8.662-12.888-8.662-21.12s3.307-15.692 8.665-21.123l-0.003 0.003 289.28-278.4c6.030-5.594 14.134-9.026 23.040-9.026s17.010 3.432 23.062 9.046z" />
<glyph unicode="&#xe929;" glyph-name="Master-15" d="M715.52 211.84c0.199-0.005 0.432-0.007 0.667-0.007 16.165 0 29.352 12.751 30.051 28.744s0.002 0.063 0.002 0.063v64c-0.347 17.879-14.754 32.288-32.607 32.639l-304.673 7.041-5.12 305.92c-0.347 17.879-14.754 32.288-32.607 32.639l-64.033 0.001c-0.199 0.005-0.432 0.007-0.667 0.007-16.165 0-29.352-12.751-30.051-28.744s-0.002-0.063-0.002-0.063l7.68-401.28c0.662-17.73 14.883-31.961 32.577-32.638z" />
<glyph unicode="&#xe92a;" glyph-name="Master-26" d="M308.48 448c0 192 81.28 293.12 203.52 293.12s203.52-97.28 203.52-293.12-81.92-295.68-203.52-295.68-203.52 103.68-203.52 295.68zM590.72 448c0 158.080-33.92 192-78.72 192s-78.72-35.2-78.72-192 34.56-192 78.72-192 78.72 39.040 78.72 192z" />
<glyph unicode="&#xe92b;" glyph-name="Master-17" d="M330.88 270.080h123.52v328.96h-106.24v81.28c26.429-0.638 89.061 19.817 143.193 52.833l94.887-0.993v-462.72h106.88v-106.88h-362.24v107.52z" />
<glyph unicode="&#xe92c;" glyph-name="Master-18" d="M314.88 233.6c145.28 136.96 247.68 234.88 247.68 315.52 0.346 2.739 0.544 5.909 0.544 9.125 0 42.415-34.385 76.8-76.8 76.8-1.768 0-3.521-0.060-5.259-0.177-37.558-2.487-76.060-25.031-100.601-58.462l-71.964 71.275c44.589 55.236 112.294 90.27 188.181 90.27 1.343 0 2.683-0.011 4.021-0.033 3.67 0.308 8.182 0.482 12.734 0.482 96.495 0 174.72-78.225 174.72-174.72 0-2.419-0.049-4.827-0.147-7.223 0.011-95.657-89.589-198.057-181.749-294.697 16.18 2.83 54.662 6.193 93.767 7.024l115.513 0.016v-111.36h-400.64v76.16z" />
<glyph unicode="&#xe92d;" glyph-name="Master-19" d="M368 316.8c29.153-32.657 74.12-55.418 124.426-57.587 5.285-1.14 10.924-1.786 16.714-1.786 39.531 0 72.028 30.119 75.795 68.661 0.025 50.233-29.415 81.593-153.575 81.593v93.44c102.4 0 134.4 30.72 134.4 76.16-0.574 34.905-29.004 62.98-63.992 62.98-2.031 0-4.040-0.095-6.022-0.28-39.496-1.098-78.701-20.071-106.544-49.813l-64.082 80.552c45.579 43.432 109.039 71.303 179.001 72.318 117.319 0.002 196.679-56.318 196.679-156.158-0.049-60.113-39.776-110.958-94.412-127.749l-0.948-1.531c63.896-14.225 111.063-70.362 111.36-137.567 0-105.633-96.64-165.793-211.84-165.793-4.516-0.294-9.791-0.461-15.106-0.461-72.552 0-137.818 31.195-183.118 80.904z" />
<glyph unicode="&#xe92e;" glyph-name="Master-20" d="M729.6 296.32h-64v-136.32h-124.16v136.32h-247.040v87.68l208 344.96h161.28v-332.16h64v-100.48zM541.44 396.8v92.16c0 36.48 3.84 91.52 5.12 128h-3.84c-14.080-31.36-30.72-64-46.72-96l-74.88-124.16h120.32z" />
<glyph unicode="&#xe92f;" glyph-name="Master-21" d="M366.080 320c28.408-31.244 72.792-53.657 122.423-56.301 3.968-0.536 8.021-0.832 12.143-0.832 46.657 0 84.48 37.823 84.48 84.48 0 1.862-0.060 3.71-0.179 5.542 0.228 1.978 0.351 4.567 0.351 7.184 0 45.243-36.677 81.92-81.92 81.92-2.824 0-5.614-0.143-8.364-0.422-0.050 0.033-0.519 0.035-0.987 0.035-31.52 0-60.506-10.85-83.426-29.020l-58.601 35.413 16 288h320v-109.44h-206.080l-9.6-106.24c17.74 8.51 38.565 13.482 60.551 13.482 1.213 0 2.422-0.015 3.627-0.045 4.146 0.403 9.175 0.631 14.257 0.631 91.9 0 166.4-74.5 166.4-166.4 0-3.824-0.129-7.617-0.383-11.376 0.042-0.365 0.050-1.396 0.050-2.429 0-108.513-87.967-196.48-196.48-196.48-4.286 0-8.54 0.137-12.757 0.408-2.275-0.137-5.623-0.199-8.986-0.199-74.791 0-142.482 30.401-191.39 79.52z" />
<glyph unicode="&#xe930;" glyph-name="Master-22" d="M640 596.48c-21.124 23.213-53.076 39.059-88.739 40.314-64.221 0.006-113.501-44.794-117.341-177.274 24.266 32.431 65.952 56.623 113.393 60.129 4.519 0.391 9.162 0.596 13.853 0.596 86.952 0 157.44-70.488 157.44-157.44 0-6.741-0.424-13.383-1.246-19.901 0.227-1.969 0.311-5.182 0.311-8.415 0-101.090-81.95-183.040-183.040-183.040-3.233 0-6.446 0.084-9.638 0.249-109.633-0.018-214.593 82.542-214.593 282.222 0 212.48 110.080 308.48 230.4 308.48 0.639 0.006 1.394 0.010 2.15 0.010 62.985 0 119.968-25.702 161.031-67.191zM597.12 340.48c1.159 4.783 1.824 10.274 1.824 15.92 0 38.881-31.519 70.4-70.4 70.4-3.125 0-6.202-0.204-9.219-0.598-36.020-1.526-68.682-23.759-85.134-55.704 11.25-90.178 49.010-118.978 88.69-118.978 40.571 1.871 72.756 35.219 72.756 76.084 0 5.695-0.625 11.244-1.81 16.582z" />
<glyph unicode="&#xe931;" glyph-name="Master-23" d="M569.6 621.44h-256v111.36h396.8v-80.64c-134.4-160-151.040-268.16-160.64-488.96h-132.48c0 0.316-0.001 0.691-0.001 1.066 0 172.384 57.224 331.402 153.712 459.096z" />
<glyph unicode="&#xe932;" glyph-name="Master-24" d="M408.96 448v3.84c-44.444 27.915-74.713 77.471-76.156 134.191-0.004 97.489 76.156 157.649 179.196 157.649 5.188 0.614 11.197 0.964 17.288 0.964 85.891 0 155.52-69.629 155.52-155.52 0-0.564-0.003-1.127-0.009-1.69-1.138-51.264-29.203-97.663-71.059-124.344l-0.621-4.21c58.167-25.474 98.251-82.578 98.56-149.080 0-89.64-80.64-157.48-201.6-157.48s-198.4 64-198.4 156.16c1.593 62.228 40.877 116.155 96.245 139.139zM512 243.84c2.724-0.387 5.87-0.609 9.067-0.609 37.467 0 67.84 30.373 67.84 67.84 0 1.34-0.039 2.671-0.115 3.991 0.008 49.738-47.992 68.938-119.672 99.018-24.603-20.331-42.174-53.054-44.146-89.919 0.205-44.691 36.225-80.575 80.625-80.575 2.253 0 4.484 0.092 6.69 0.274zM581.12 576c0.781 3.751 1.228 8.061 1.228 12.476 0 35.346-28.654 64-64 64-2.236 0-4.444-0.115-6.621-0.338-0.915 0.106-2.301 0.154-3.698 0.154-33.225 0-60.16-26.935-60.16-60.16 0-1.397 0.048-2.783 0.141-4.157-0.010-46.534 39.67-68.934 97.91-91.334 18.516 17.873 32.797 46.75 35.175 78.938z" />
<glyph unicode="&#xe933;" glyph-name="Master-25" d="M387.2 299.52c20.441-22.723 52.049-38.686 87.399-40.31 64.281-0.010 113.561 44.79 117.401 177.27-24.266-32.431-65.952-56.623-113.393-60.129-4.105-0.319-8.273-0.484-12.479-0.484-87.305 0-158.080 70.775-158.080 158.080 0 6.474 0.389 12.858 1.146 19.128-0.221 1.989-0.305 5.202-0.305 8.435 0 101.090 81.95 183.040 183.040 183.040 3.233 0 6.446-0.084 9.638-0.249 109.633 0.018 215.873-82.542 215.873-282.222 0-212.48-111.36-308.48-230.4-308.48-1.144-0.020-2.493-0.032-3.845-0.032-63.665 0-121.332 25.68-163.209 67.246zM590.080 526.72c-14.080 89.6-48.64 118.4-88.96 118.4-40.919-1.88-73.381-35.511-73.381-76.724 0-5.694 0.62-11.244 1.795-16.585-0.798-3.23-1.201-7.531-1.201-11.927 0-38.881 31.519-70.4 70.4-70.4 2.192 0 4.361 0.1 6.502 0.296 36.314 1.454 68.846 24.054 84.583 56.344z" />
<glyph unicode="&#xe934;" glyph-name="Master-01" d="M512 704c35.346 0 64-28.654 64-64v-384c0-35.346-28.654-64-64-64s-64 28.654-64 64v384c0 35.346 28.654 64 64 64zM320 512h384c35.346 0 64-28.654 64-64s-28.654-64-64-64h-384c-35.346 0-64 28.654-64 64s28.654 64 64 64z" />
<glyph unicode="&#xe935;" glyph-name="Master-06" d="M640 234.88l-128 128-170.88-170.88-85.12 85.76 42.88 42.24 128 128-170.88 170.88 85.12 85.12 170.88-170.88 170.88 170.88 85.12-85.76-42.88-42.24-128-128 170.88-170.88-85.12-85.12z" />
<glyph unicode="&#xe936;" glyph-name="Master-04" d="M512 768c-0.798 0.012-1.739 0.019-2.682 0.019-94.742 0-173.456-68.621-189.153-158.872-0.758-3.2-1.098-5.558-1.098-7.996 0-14.138 11.462-25.6 25.6-25.6 1.688 0 3.338 0.163 4.935 0.475l63.838-0.026c0.96-0.104 2.073-0.164 3.2-0.164 17.32 0 31.36 14.040 31.36 31.36 0 0.058 0 0.115 0 0.173s0-0.009 0-0.009c-0.004 0.192-0.007 0.419-0.007 0.646 0 17.45 13.968 31.638 31.333 31.993l64.033 0.001c17.673 0 32-14.327 32-32v-64c0-17.673-14.327-32-32-32h-48c-40.32 0-47.36-28.8-47.36-64v-96c0-17.673 14.327-32 32-32h64c17.673 0 32 14.327 32 32v42.88c75.361 27.073 128.286 97.916 128.286 181.12 0 106.039-85.961 192-192 192-0.101 0-0.201 0-0.302 0zM544 256h-64c-17.673 0-32-14.327-32-32v-64c0-17.673 14.327-32 32-32h64c17.673 0 32 14.327 32 32v64c0 0.002 0 0.004 0 0.006 0 17.673-14.327 32-32 32-0.225 0-0.45-0.002-0.673-0.007z" />
<glyph unicode="&#xe937;" glyph-name="Master-07" d="M512 128c-350.080 264.32-320 480-320 480v0c2.866 88.24 75.086 158.682 163.759 158.682 72.873 0 134.635-47.577 155.917-113.363 21.931 65.786 83.692 113.363 156.565 113.363 88.673 0 160.893-70.443 163.752-158.42l0.007-0.262s30.080-215.68-320-480z" />
<glyph unicode="&#xe938;" glyph-name="Master-08" d="M832 512v0c0 176.731-143.269 320-320 320s-320-143.269-320-320v0s-10.88-214.4 260.48-418.56c7.528-9.344 31.549-23.458 58.65-29.283 15.288 0.427 40.928 11.904 61.199 29.426 271.191 204.017 259.671 418.417 259.671 418.417zM512 384c-70.692 0-128 57.308-128 128s57.308 128 128 128c70.692 0 128-57.308 128-128s-57.308-128-128-128z" />
<glyph unicode="&#xe939;" glyph-name="Master-03" d="M448 128v384h128v-384h-128zM448 768h128v-128h-128v128z" />
<glyph unicode="&#xe93a;" glyph-name="Master-02" d="M768 448c0-141.385-114.615-256-256-256s-256 114.615-256 256c0 141.385 114.615 256 256 256s256-114.615 256-256z" />
<glyph unicode="&#xe93b;" glyph-name="Master-05" d="M394.24 202.24l-223.36 217.6c-5.355 5.428-8.662 12.888-8.662 21.12s3.307 15.692 8.665 21.123l-0.003-0.003 45.44 43.52c5.931 5.552 13.927 8.962 22.72 8.962s16.789-3.41 22.739-8.979l154.861-151.023 346.88 339.2c5.831 5.511 13.72 8.9 22.4 8.9s16.569-3.388 22.416-8.914l44.784-43.505c5.355-5.428 8.662-12.888 8.662-21.12s-3.307-15.692-8.665-21.123l0.003 0.003-414.72-406.4c-5.744-5.143-13.371-8.286-21.732-8.286-8.694 0-16.594 3.399-22.443 8.94z" />
<glyph unicode="&#xe93c;" glyph-name="Article" horiz-adv-x="1013" d="M521.5 127.998h-392.692c-30.965 0-56.098 23.895-56.098 53.335s25.134 53.335 56.098 53.335h392.692c30.965 0 56.098-23.895 56.098-53.335s-25.134-53.335-56.098-53.335zM872.621 394.677h-746.489c-29.435 0-53.321 23.886-53.321 53.321s23.886 53.321 53.321 53.321h746.489c29.435 0 53.321-23.886 53.321-53.321s-23.886-53.321-53.321-53.321zM726.046 661.333h-609.778c-24.044 0-43.555 23.895-43.555 53.335s19.515 53.335 43.555 53.335h609.778c24.044 0 43.555-23.895 43.555-53.335s-19.515-53.335-43.555-53.335z" />
<glyph unicode="&#xe93d;" glyph-name="Interaction" horiz-adv-x="960" d="M556.268 854.106c-80.749 58.987-185.266 78.668-286.723 54.049-140.79-34.189-242.056-160.742-240.794-300.939 0.325-36.982 7.151-72.504 20.307-105.575 7.553-18.996 27.688-32.278 48.95-32.278 4.876 0 12.257 0 17.209 2.379 26.54 9.101 39.543 36.495 29.6 62.25-10.593 29.953-15.316 52.788-15.316 74.054 0 60.195 27.21 117.669 74.688 157.696 48.186 40.641 110.54 59.222 175.667 52.373 62.010-6.524 118.953-38.532 156.24-87.805 37.382-49.4 50.977-110.766 37.286-168.366-1.071-4.506-2.371-8.957-3.939-13.409-3.404-10.741-1.702-23.123 4.685-33.972 6.979-11.859 18.643-20.636 32.009-24.078 12.926-3.298 27.19-1.856 39.065 4.037 12.352 6.11 21.091 16.238 24.59 28.331 9.006 27.538 13.557 56.915 13.557 87.283 0 96.042-46.312 184.964-127.080 243.97zM793.815 356.478l-315.76 52.828-2.976 188.643c-0.035 50.353-32.418 94.536-80.59 109.995-37.897 12.159-78.017 6.731-110.014-14.882-31.91-21.547-50.972-56.161-50.972-92.572v-412.922l-23.876 39.134c-16.874 28.311-43.078 47.878-73.763 55.105-30.037 7.094-62.508 1.881-89.377-14.42-43.936-28.806-58.289-88.167-36.339-151.917 0.438-0.924 1.523-3.679 3.238-8.002 7.072-17.736 23.631-59.312 47.542-111.414l3.046-5.807c12.971-29.219 31.088-36.907 46.579-36.907 7.492 0 14.336 1.798 19.727 3.828 11.29 4.29 19.43 11.598 23.526 21.151 4.796 11.202 3.816 25.474-2.538 38.837-2.153 4.999-52.565 122.583-54.648 126.988-9.050 28.971-6.126 48.555-0.98 51.343 6.021 2.838 12.778 3.745 17.837 2.854 8.98-2.821 13.776-6.616 18.169-14.799l94.891-138.273c11.483-17.323 39.157-30.258 67.829-20.062 21.723 7.705 33.678 22.174 33.678 40.718v529.648c0 11.961 6.879 22.834 17.119 27.074 9.697 3.96 20.147 3.283 28.672-1.963 8.595-5.296 13.723-14.090 13.723-23.51v-219.016c0-22.108 18.66-42.417 40.75-44.331h0.123l350.015-58.553c39.91-6.748 68.897-39.382 68.897-77.592v-202.699c0-22.784 19.587-41.246 43.761-41.246 24.156 0 43.761 18.462 43.761 41.246v202.699c0 78.202-59.287 144.988-141.049 158.797z" />
<glyph unicode="&#xe93e;" glyph-name="Quiz" d="M896 64h-768v768h768v-768zM960 960h-896c-38.4 0-64-25.6-64-64v-896c0-38.4 25.6-64 64-64h896c38.4 0 64 25.6 64 64v896c0 38.4-25.6 64-64 64v0zM512 256c35.328 0 64-28.672 64-64s-28.672-64-64-64c-35.328 0-64 28.672-64 64s28.672 64 64 64zM460.8 608c12.8 19.2 32 32 57.6 32 38.4 0 64-25.6 64-64 0-19.2-6.4-25.6-38.4-44.8-38.4-25.6-89.6-64-89.6-147.2v-64h128v64c0 12.8 0 19.2 32 38.4 38.4 25.6 96 64 96 153.6 0 108.8-83.2 192-192 192-70.4 0-134.4-38.4-166.4-96l-32-57.6 108.8-64 32 57.6z" />
<glyph unicode="&#xe93f;" glyph-name="Video" horiz-adv-x="1013" d="M633.548 96h-528c-35.2 0-58.668 23.468-58.668 58.668v586.668c0 35.2 23.468 58.668 58.668 58.668h528c35.2 0 58.668-23.468 58.668-58.668v-88l211.2 88c41.068 11.731 82.133-17.6 82.133-58.668v-469.333c0-41.068-41.068-70.4-82.133-52.8l-211.2 82.133v-88c0-35.2-23.468-58.668-58.668-58.668v0zM164.214 213.332h410.668v117.332c0 41.068 41.068 70.4 82.133 52.8l211.2-88v293.333l-211.2-88c-41.068-5.868-82.133 23.468-82.133 64.531v117.332h-410.668v-469.333z" />
<glyph unicode="&#xe940;" glyph-name="close-small" d="M1024-6.4l-57.6-57.6-454.4 454.4-454.4-454.4-57.6 57.6 454.4 454.4-454.4 454.4 57.6 57.6 454.4-454.4 454.4 454.4 57.6-57.6-454.4-454.4 454.4-454.4z" />
<glyph unicode="&#xe941;" glyph-name="reload" horiz-adv-x="931" d="M436.413 33.048c17.216 0.536 31.008 14.661 31.008 32.007 0 16.691-12.769 30.399-30.465 31.97-208.292 14.641-372.721 188.252-372.721 400.269 0 221.614 179.654 401.268 401.268 401.268s401.268-179.654 401.268-401.268c0-0.443-0.001-0.885-0.002-1.181 0.002-0.508 0.003-1.017 0.003-1.526 0-130.044-62.58-245.472-160.385-318.61-7.717-5.848-12.702-15.113-12.702-25.542 0-17.689 14.339-32.028 32.028-32.028 7.259 0 13.955 2.415 20.455 7.291 112.284 83.879 184.976 217.835 184.976 368.769 0 0.535-0.001 1.069-0.003 1.526-0.054 256.221-207.778 463.912-464.012 463.912-256.267 0-464.012-207.745-464.012-464.012 0-244.703 189.42-445.165 431.151-462.847h2.095zM466.339 55.017l-82.991 128.512c-2.834 3.862-4.535 8.71-4.535 13.955 0 7.911 3.869 14.917 9.819 19.231l7.516 5.214c3.351 1.795 7.33 2.85 11.556 2.85 8.812 0 16.552-4.585 20.966-11.5l94.966-148.068c0.123-0.194 0.245-0.361 0.378-0.519l6.138-10c2.058-3.33 3.278-7.367 3.278-11.689 0-8.464-4.677-15.835-11.588-19.67l-10.448-5.691h-0.605l-153.6-78.522c-3.348-1.797-7.326-2.853-11.55-2.853-8.825 0-16.573 4.608-20.971 11.548l-3.318 8.48c-1.445 2.944-2.291 6.407-2.291 10.068 0 9.382 5.552 17.468 13.55 21.151z" />
<glyph unicode="&#xe942;" glyph-name="attach" horiz-adv-x="1088" d="M1011.996 832.214c-87.849 87.849-231.181 87.849-319.030 0l-473.922-476.234c-53.172-53.172-53.172-138.709 0-191.881s138.709-53.172 191.881 0l293.6 295.912c18.495 18.495 18.495 46.236 0 64.731s-46.236 18.495-64.731 0l-295.912-293.6c-16.183-16.183-43.924-16.183-60.107 0s-16.183 43.924 0 60.107l473.922 476.234c50.86 50.86 136.397 50.86 187.257 0s50.86-136.397 0-187.257l-473.922-476.234c-87.849-87.849-228.87-87.849-314.407 0-87.849 87.849-87.849 228.87 0 314.407l425.374 425.374c18.494 18.495 18.494 46.236 0 64.731s-46.236 18.495-64.731 0l-425.374-423.062c-122.526-122.526-122.526-323.654 0-446.18s323.654-122.526 446.18 0l473.922 473.922c87.849 87.849 87.849 231.181 0 319.030v0z" />
<glyph unicode="&#xe943;" glyph-name="doc-alt" horiz-adv-x="1736" d="M118.652 862.891v0-802.179c0 0.236-0.159 0.394-0.135 0.394h1509.031c-0.131 0-0.135-0.004-0.135-0.394v802.179c0-0.236 0.159-0.394 0.135-0.394h-1509.031c0.131 0 0.135 0.004 0.135 0.394v0zM29.609 862.891c0 48.96 40.034 88.65 88.908 88.65h1509.031c49.103 0 88.908-39.61 88.908-88.65v-802.179c0-48.96-40.034-88.65-88.908-88.65h-1509.031c-49.103 0-88.908 39.61-88.908 88.65v802.179zM651.8 463.812c0-23.448-4.044-45.078-12.132-64.89s-19.478-36.953-34.17-51.423c-14.692-14.47-32.389-25.748-53.092-33.837s-43.668-12.132-68.897-12.132h-125.997v324.341h125.997c25.229 0 48.195-4.081 68.897-12.243s38.4-19.441 53.092-33.837c14.692-14.395 26.082-31.499 34.17-51.311s12.132-41.368 12.132-64.668v0zM574.778 463.812c0 16.028-2.078 30.497-6.233 43.409s-10.129 23.856-17.92 32.835c-7.791 8.979-17.326 15.879-28.605 20.703s-24.116 7.235-38.511 7.235h-50.31v-208.584h50.31c14.395 0 27.232 2.412 38.511 7.235s20.814 11.724 28.605 20.703c7.791 8.979 13.765 19.923 17.92 32.835s6.233 27.455 6.233 43.631v0zM1045.076 463.812c0-23.448-4.044-45.264-12.132-65.447s-19.478-37.732-34.17-52.647c-14.692-14.915-32.389-26.602-53.092-35.061s-43.668-12.689-68.897-12.689c-25.229 0-48.232 4.23-69.009 12.689s-38.548 20.146-53.315 35.061c-14.766 14.915-26.194 32.464-34.282 52.647s-12.132 41.999-12.132 65.447c0 23.448 4.044 45.264 12.132 65.447s19.515 37.695 34.282 52.536c14.766 14.841 32.538 26.49 53.315 34.95s43.78 12.689 69.009 12.689c25.229 0 48.195-4.267 68.897-12.8s38.4-20.22 53.092-35.061c14.692-14.841 26.082-32.352 34.17-52.536s12.132-41.925 12.132-65.224v0zM968.053 463.812c0 16.028-2.078 30.46-6.233 43.297s-10.129 23.708-17.92 32.612c-7.791 8.904-17.326 15.731-28.605 20.48s-24.116 7.123-38.511 7.123c-14.544 0-27.492-2.374-38.845-7.123s-20.925-11.576-28.717-20.48c-7.791-8.904-13.765-19.775-17.92-32.612s-6.233-27.269-6.233-43.297c0-16.176 2.078-30.683 6.233-43.52s10.129-23.708 17.92-32.612c7.791-8.904 17.363-15.694 28.717-20.369s24.301-7.012 38.845-7.012c14.395 0 27.232 2.337 38.511 7.012s20.814 11.464 28.605 20.369c7.791 8.904 13.765 19.775 17.92 32.612s6.233 27.344 6.233 43.52v0zM1336.174 385.453c1.781 0 3.562-0.334 5.343-1.002s3.488-1.818 5.12-3.45l29.83-31.388c-13.060-17.067-29.421-29.941-49.085-38.623s-42.926-13.023-69.788-13.023c-24.635 0-46.711 4.192-66.226 12.577s-36.063 19.961-49.642 34.727c-13.579 14.766-24.005 32.278-31.277 52.536s-10.908 42.258-10.908 66.003c0 24.19 4.155 46.414 12.466 66.671s19.923 37.732 34.838 52.424c14.915 14.692 32.76 26.119 53.537 34.282s43.705 12.243 68.786 12.243c12.169 0 23.634-1.076 34.393-3.228s20.814-5.12 30.163-8.904c9.35-3.784 17.957-8.311 25.823-13.579s14.841-11.093 20.925-17.475l-25.377-34.059c-1.632-2.078-3.562-3.97-5.788-5.677s-5.343-2.56-9.35-2.56c-2.671 0-5.194 0.594-7.569 1.781s-4.897 2.634-7.569 4.341c-2.671 1.707-5.602 3.562-8.793 5.565s-6.975 3.859-11.353 5.565c-4.378 1.707-9.498 3.154-15.36 4.341s-12.726 1.781-20.591 1.781c-13.653 0-26.119-2.412-37.398-7.235s-20.962-11.724-29.050-20.703c-8.088-8.979-14.395-19.849-18.922-32.612s-6.79-27.084-6.79-42.963c0-16.622 2.263-31.388 6.79-44.299s10.685-23.782 18.477-32.612c7.791-8.83 16.881-15.545 27.27-20.146s21.519-6.901 33.391-6.901c6.827 0 13.060 0.334 18.699 1.002s10.871 1.818 15.694 3.45c4.823 1.632 9.424 3.747 13.802 6.344s8.793 5.825 13.245 9.683c1.781 1.484 3.71 2.708 5.788 3.673s4.23 1.447 6.456 1.447v0z" />
<glyph unicode="&#xe944;" glyph-name="file-alt" horiz-adv-x="1764" d="M93.091 867.375v0-837.818h1576.96v837.818h-1576.96zM0 867.375c0 51.413 41.678 93.091 93.091 93.091h1577.425c51.413 0 93.091-41.678 93.091-93.091v-837.818c0-51.413-41.678-93.091-93.091-93.091h-1577.891c-51.413 0-93.091 41.678-93.091 93.091v837.818zM603.229 624.873v-50.269h-149.411v-99.607h126.138v-51.665h-126.138v-137.309h-62.836v338.851h212.247zM755.898 287.884h-62.836v336.989h62.836v-336.524zM932.305 340.015h134.516v-51.665h-197.353v336.524h62.836v-284.858zM1362.385 624.873v-50.269h-149.411v-93.091h117.76v-46.545h-117.76v-93.091h149.411v-50.269h-212.247v333.265h212.247z" />
<glyph unicode="&#xe945;" glyph-name="pdf-alt" horiz-adv-x="1736" d="M118.652 843.78v0-802.179c0 0.236-0.159 0.394-0.135 0.394h1509.031c-0.131 0-0.135-0.004-0.135-0.394v802.179c0-0.236 0.159-0.394 0.135-0.394h-1509.031c0.131 0 0.135 0.004 0.135 0.394v0zM29.609 843.78c0 48.96 40.034 88.65 88.908 88.65h1509.031c49.103 0 88.908-39.61 88.908-88.65v-802.179c0-48.96-40.034-88.65-88.908-88.65h-1509.031c-49.103 0-88.908 39.61-88.908 88.65v802.179zM467.218 389.253v-108.41h-75.242v324.341h114.421c22.855 0 42.481-2.708 58.88-8.125s29.904-12.874 40.515-22.372c10.611-9.498 18.439-20.703 23.485-33.614s7.569-26.861 7.569-41.85c0-16.176-2.597-31.017-7.791-44.522s-13.134-25.081-23.819-34.727c-10.685-9.646-24.227-17.178-40.626-22.595s-35.803-8.125-58.212-8.125h-39.179zM467.218 446.018h39.179c19.59 0 33.688 4.675 42.296 14.024s12.911 22.409 12.911 39.179c0 7.42-1.113 14.173-3.339 20.257s-5.602 11.316-10.129 15.694c-4.526 4.378-10.24 7.754-17.141 10.129s-15.1 3.562-24.598 3.562h-39.179v-102.845zM1007.415 443.124c0-23.448-4.044-45.078-12.132-64.89s-19.478-36.953-34.17-51.423c-14.692-14.47-32.389-25.748-53.092-33.837s-43.668-12.132-68.897-12.132h-125.997v324.341h125.997c25.229 0 48.195-4.081 68.897-12.243s38.4-19.441 53.092-33.837c14.692-14.395 26.082-31.499 34.17-51.311s12.132-41.368 12.132-64.668v0zM930.393 443.124c0 16.028-2.078 30.497-6.233 43.409s-10.129 23.856-17.92 32.835c-7.791 8.979-17.326 15.879-28.605 20.703s-24.116 7.235-38.511 7.235h-50.31v-208.584h50.31c14.395 0 27.232 2.412 38.511 7.235s20.814 11.724 28.605 20.703c7.791 8.979 13.765 19.923 17.92 32.835s6.233 27.455 6.233 43.631v0zM1289.386 605.183v-57.878h-133.12v-82.143h110.859v-58.101h-110.859v-126.219h-75.687v324.341h208.807z" />
<glyph unicode="&#xe946;" glyph-name="ppt-alt" horiz-adv-x="1736" d="M118.652 837.481v0-802.179c0 0.236-0.159 0.394-0.135 0.394h1509.031c-0.131 0-0.135-0.004-0.135-0.394v802.179c0-0.236 0.159-0.394 0.135-0.394h-1509.031c0.131 0 0.135 0.004 0.135 0.394v0zM29.609 837.481c0 48.96 40.034 88.65 88.908 88.65h1509.031c49.103 0 88.908-39.61 88.908-88.65v-802.179c0-48.96-40.034-88.65-88.908-88.65h-1509.031c-49.103 0-88.908 39.61-88.908 88.65v802.179zM500.237 386.063v-108.41h-75.242v324.341h114.421c22.855 0 42.481-2.708 58.88-8.125s29.904-12.874 40.515-22.372c10.611-9.498 18.439-20.703 23.485-33.614s7.569-26.861 7.569-41.85c0-16.176-2.597-31.017-7.791-44.522s-13.134-25.081-23.819-34.727c-10.685-9.646-24.227-17.178-40.626-22.595s-35.803-8.125-58.212-8.125h-39.179zM500.237 442.828h39.179c19.59 0 33.688 4.675 42.296 14.024s12.911 22.409 12.911 39.179c0 7.42-1.113 14.173-3.339 20.257s-5.602 11.316-10.129 15.694c-4.526 4.378-10.24 7.754-17.141 10.129s-15.1 3.562-24.598 3.562h-39.179v-102.845zM821.388 386.063v-108.41h-75.242v324.341h114.421c22.855 0 42.481-2.708 58.88-8.125s29.904-12.874 40.515-22.372c10.611-9.498 18.439-20.703 23.485-33.614s7.569-26.861 7.569-41.85c0-16.176-2.597-31.017-7.791-44.522s-13.134-25.081-23.819-34.727c-10.685-9.646-24.227-17.178-40.626-22.595s-35.803-8.125-58.212-8.125h-39.179zM821.388 442.828h39.179c19.59 0 33.688 4.675 42.296 14.024s12.911 22.409 12.911 39.179c0 7.42-1.113 14.173-3.339 20.257s-5.602 11.316-10.129 15.694c-4.526 4.378-10.24 7.754-17.141 10.129s-15.1 3.562-24.598 3.562h-39.179v-102.845zM1302.816 601.993v-59.659h-91.27v-264.682h-75.242v264.682h-91.27v59.659h257.781z" />
<glyph unicode="&#xe947;" glyph-name="rtf-alt" horiz-adv-x="1781" d="M118.652 856.592v0-802.179c0 0.278-0.117 0.394 0.051 0.394h1558.159c0.308 0 0.051-0.257 0.051-0.394v802.179c0-0.278 0.117-0.394-0.051-0.394h-1558.159c-0.308 0-0.051 0.257-0.051 0.394v0zM29.609 856.592c0 48.96 39.528 88.65 89.094 88.65h1558.159c49.205 0 89.094-39.61 89.094-88.65v-802.179c0-48.96-39.528-88.65-89.094-88.65h-1558.159c-49.205 0-89.094 39.61-89.094 88.65v802.179zM519.121 411.706v-119.986h-75.242v324.341h105.517c23.448 0 43.446-2.412 59.993-7.235s30.052-11.539 40.515-20.146c10.463-8.608 18.068-18.773 22.817-30.497s7.123-24.487 7.123-38.289c0-10.537-1.41-20.48-4.23-29.83s-7.012-17.994-12.577-25.934c-5.565-7.94-12.392-15.026-20.48-21.259s-17.401-11.353-27.937-15.36c5.046-2.523 9.758-5.639 14.136-9.35s8.199-8.236 11.464-13.579l69.009-112.863h-68.118c-12.615 0-21.667 4.749-27.158 14.247l-53.871 94.163c-2.375 4.155-5.157 7.123-8.348 8.904s-7.68 2.671-13.468 2.671h-19.144zM519.121 463.574h30.275c10.24 0 18.959 1.299 26.157 3.896s13.097 6.196 17.697 10.797c4.601 4.601 7.94 9.98 10.017 16.139s3.117 12.8 3.117 19.923c0 14.247-4.638 25.377-13.913 33.391s-23.634 12.021-43.075 12.021h-30.275v-96.167zM999.214 616.061v-59.659h-91.27v-264.682h-75.242v264.682h-91.27v59.659h257.781zM1276.288 616.061v-57.878h-133.12v-82.143h110.859v-58.101h-110.859v-126.219h-75.687v324.341h208.807z" />
<glyph unicode="&#xe948;" glyph-name="xls-alt" horiz-adv-x="1736" d="M118.652 869.19v0-802.179c0 0.236-0.159 0.394-0.135 0.394h1509.031c-0.131 0-0.135-0.004-0.135-0.394v802.179c0-0.236 0.159-0.394 0.135-0.394h-1509.031c0.131 0 0.135 0.004 0.135 0.394v0zM29.609 869.19c0 48.96 40.034 88.65 88.908 88.65h1509.031c49.103 0 88.908-39.61 88.908-88.65v-802.179c0-48.96-40.034-88.65-88.908-88.65h-1509.031c-49.103 0-88.908 39.61-88.908 88.65v802.179zM519.973 476.054l-100.397 157.607h75.242c4.897 0 8.496-0.631 10.797-1.892s4.341-3.376 6.122-6.344l64.557-109.301c0.742 1.929 1.595 3.784 2.56 5.565s2.041 3.636 3.228 5.565l56.543 97.057c3.71 6.233 8.756 9.35 15.137 9.35h72.125l-101.732-154.268 103.958-170.073h-75.242c-4.897 0-8.867 1.187-11.91 3.562s-5.454 5.194-7.235 8.459l-65.002 113.53c-1.187-3.265-2.523-6.085-4.007-8.459l-60.55-105.071c-1.781-3.117-4.155-5.899-7.123-8.348s-6.678-3.673-11.13-3.673h-70.344l104.403 166.734zM869.395 369.425h120.209v-60.104h-195.45v324.341h75.242v-264.237zM1243.081 567.769c-2.226-3.562-4.563-6.233-7.012-8.014s-5.602-2.671-9.461-2.671c-3.413 0-7.086 1.076-11.019 3.228s-8.385 4.563-13.357 7.235c-4.972 2.671-10.648 5.083-17.030 7.235s-13.653 3.228-21.816 3.228c-14.099 0-24.598-3.005-31.499-9.016s-10.351-14.136-10.351-24.376c0-6.53 2.078-11.947 6.233-16.25s9.609-8.014 16.362-11.13c6.752-3.117 14.47-5.973 23.151-8.57s17.549-5.491 26.602-8.682c9.053-3.191 17.92-6.938 26.602-11.242s16.399-9.795 23.151-16.473c6.752-6.678 12.206-14.803 16.362-24.376s6.233-21.111 6.233-34.616c0-14.989-2.597-29.013-7.791-42.073s-12.726-24.45-22.595-34.17c-9.869-9.721-22.038-17.363-36.508-22.929s-30.905-8.348-49.308-8.348c-10.092 0-20.369 1.039-30.831 3.117s-20.591 5.009-30.386 8.793c-9.795 3.784-18.996 8.274-27.603 13.468s-16.102 10.982-22.483 17.363l22.261 35.172c1.632 2.671 3.933 4.823 6.901 6.456s6.159 2.449 9.572 2.449c4.452 0 8.941-1.41 13.468-4.23s9.646-5.936 15.36-9.35c5.714-3.413 12.281-6.53 19.701-9.35s16.176-4.23 26.268-4.23c13.653 0 24.264 3.005 31.833 9.016s11.353 15.545 11.353 28.605c0 7.569-2.078 13.728-6.233 18.477s-9.609 8.682-16.362 11.798c-6.752 3.117-14.432 5.862-23.040 8.237s-17.438 5.009-26.49 7.903c-9.053 2.894-17.883 6.456-26.49 10.685s-16.288 9.795-23.040 16.696c-6.752 6.901-12.206 15.508-16.362 25.823s-6.233 23.040-6.233 38.177c0 12.169 2.449 24.042 7.346 35.617s12.095 21.89 21.593 30.943c9.498 9.053 21.148 16.288 34.95 21.704s29.607 8.125 47.416 8.125c9.943 0 19.627-0.779 29.050-2.337s18.365-3.859 26.824-6.901c8.459-3.042 16.362-6.678 23.708-10.908s13.913-9.016 19.701-14.358l-18.699-34.95z" />
<glyph unicode="&#xe949;" glyph-name="zip-alt" horiz-adv-x="1736" d="M118.652 831.182v0-802.179c0 0.236-0.159 0.394-0.135 0.394h1509.031c-0.131 0-0.135-0.004-0.135-0.394v802.179c0-0.236 0.159-0.394 0.135-0.394h-1509.031c0.131 0 0.135 0.004 0.135 0.394v0zM29.609 831.182c0 48.96 40.034 88.65 88.908 88.65h1509.031c49.103 0 88.908-39.61 88.908-88.65v-802.179c0-48.96-40.034-88.65-88.908-88.65h-1509.031c-49.103 0-88.908 39.61-88.908 88.65v802.179zM730.3 588.727v-27.158c0-3.859-0.631-7.643-1.892-11.353s-3.005-7.198-5.231-10.463l-152.264-217.489h154.49v-57.878h-250.212v28.939c0 3.413 0.594 6.79 1.781 10.129s2.82 6.419 4.897 9.238l152.71 218.157h-146.922v57.878h242.643zM884.049 264.386h-75.687v324.341h75.687v-324.341zM1056.496 372.796v-108.41h-75.242v324.341h114.421c22.855 0 42.481-2.708 58.88-8.125s29.904-12.874 40.515-22.372c10.611-9.498 18.439-20.703 23.485-33.614s7.569-26.861 7.569-41.85c0-16.176-2.597-31.017-7.791-44.522s-13.134-25.081-23.819-34.727c-10.685-9.646-24.227-17.178-40.626-22.595s-35.803-8.125-58.212-8.125h-39.179zM1056.496 429.561h39.179c19.59 0 33.688 4.675 42.296 14.024s12.911 22.409 12.911 39.179c0 7.42-1.113 14.173-3.339 20.257s-5.602 11.316-10.129 15.694c-4.526 4.378-10.24 7.754-17.141 10.129s-15.1 3.562-24.598 3.562h-39.179v-102.845z" />
<glyph unicode="&#xe94a;" glyph-name="doc" horiz-adv-x="780" d="M780.19-64h-780.19v1024h575.39l204.8-336.457v-687.543zM48.762-15.238h682.667v624.152l-185.295 302.324h-497.371v-926.476zM141.41 496.762h53.638c4.876 0 9.752 0 14.629-4.876s4.876-4.876 9.752-9.752l58.514-209.676c0-4.876 4.876-9.752 4.876-14.629s4.876-14.629 4.876-19.505c0 4.876 4.876 14.629 4.876 19.505s0 9.752 0 14.629l68.267 209.676c0 4.876 4.876 4.876 9.752 9.752s9.752 4.876 14.629 4.876h19.505c4.876 0 9.752 0 14.629-4.876s4.876-4.876 9.752-9.752l68.267-209.676c4.876-9.752 4.876-19.505 9.752-34.133 0 14.629 4.876 24.381 4.876 34.133l58.514 209.676c0 4.876 4.876 9.752 9.752 9.752 4.876 4.876 9.752 4.876 14.629 4.876h53.638l-112.152-351.086h-58.514l-78.019 238.933c0 4.876 0 4.876-4.876 9.752 0 4.876 0 9.752-4.876 9.752 0-4.876 0-9.752-4.876-9.752 0-4.876 0-4.876-4.876-9.752l-78.019-238.933h-53.638l-107.276 351.086z" />
<glyph unicode="&#xe94b;" glyph-name="rtf" horiz-adv-x="780" d="M780.19-64h-780.19v1024h575.39l204.8-336.457v-687.543zM48.762-15.238h682.667v624.152l-185.295 302.324h-497.371v-926.476zM170.667 155.429h341.333v-48.762h-341.333v48.762zM170.667 448h438.857v-48.762h-438.857v48.762zM170.667 594.286h438.857v-48.762h-438.857v48.762zM170.667 301.714h438.857v-48.762h-438.857v48.762z" />
<glyph unicode="&#xe94c;" glyph-name="pdf" horiz-adv-x="780" d="M780.19-64h-780.19v1024h575.39l204.8-336.457v-687.543zM48.762-15.238h682.667v629.029l-185.295 297.448h-497.371v-926.476zM224.305 243.2c-78.019-34.133-87.771-121.905-68.267-102.4 107.276 117.029 165.79 214.552 195.048 287.695-73.143 131.657-68.267 287.695 14.629 258.438 63.39-24.381 34.133-87.771 34.133-87.771s-9.752 73.143-48.762 63.39c-9.752-4.876-19.505-97.524 19.505-185.295 29.257 73.143 19.505 112.152 19.505 112.152s68.267-19.505 4.876-160.914c9.752-9.752 19.505-19.505 29.257-29.257 14.629-14.629 29.257-29.257 43.886-43.886 43.886 14.629 82.895 24.381 117.029 24.381 102.4 0 97.524-102.4 97.524-102.4-24.381 53.638-92.648 58.514-165.79 43.886 87.771-53.638 160.914-39.010 160.914-39.010-9.752-63.39-107.276-68.267-219.429 24.381-58.514-14.629-117.029-39.010-156.038-53.638-92.648-141.41-175.543-209.676-190.171-126.781-29.257 102.4 112.152 117.029 112.152 117.029zM394.971 369.981l-14.629 19.505-14.629-29.257c-14.629-24.381-24.381-43.886-39.010-63.39 24.381 14.629 58.514 29.257 97.524 43.886-9.752 4.876-19.505 14.629-29.257 29.257z" />
<glyph unicode="&#xe94d;" glyph-name="ppt" horiz-adv-x="780" d="M780.19-64h-780.19v1024h575.39l204.8-336.457v-687.543zM48.762-15.238h682.667v624.152l-185.295 302.324h-497.371v-926.476zM287.695 267.581v-121.905h-63.39v351.086h117.029c24.381 0 43.886-4.876 63.39-9.752s29.257-14.629 43.886-24.381c9.752-9.752 19.505-19.505 24.381-34.133s9.752-29.257 9.752-43.886c0-14.629-4.876-34.133-9.752-48.762s-14.629-24.381-24.381-39.010c-9.752-9.752-24.381-19.505-43.886-24.381s-39.010-9.752-58.514-9.752h-58.514zM287.695 321.219h48.762c9.752 0 24.381 0 29.257 4.876 9.752 4.876 14.629 9.752 24.381 14.629 4.876 4.876 9.752 14.629 14.629 19.505 4.876 9.752 4.876 14.629 4.876 29.257 0 9.752 0 19.505-4.876 24.381-4.876 9.752-4.876 14.629-14.629 19.505-4.876 4.876-14.629 9.752-24.381 14.629s-19.505 4.876-34.133 4.876h-48.762v-131.657z" />
<glyph unicode="&#xe94e;" glyph-name="file" horiz-adv-x="780" d="M780.19-64h-780.19v1024h575.39l204.8-336.457v-687.543zM48.762-15.238h682.667v624.152l-185.295 302.324h-497.371v-926.476z" />
<glyph unicode="&#xe94f;" glyph-name="xls" horiz-adv-x="780" d="M780.19-64h-780.19v1024h575.39l204.8-336.457v-687.543zM48.762-15.238h682.667v624.152l-185.295 302.324h-497.371v-926.476zM302.324 326.095l-112.152 170.667h63.39c4.876 0 9.752 0 9.752 0s4.876-4.876 4.876-4.876l78.019-131.657c0 0 0 4.876 4.876 4.876 0 0 0 4.876 4.876 4.876l73.143 117.029c0 4.876 4.876 4.876 4.876 4.876s4.876 0 9.752 0h63.39l-112.152-165.79 117.029-185.295h-68.267c-4.876 0-9.752 0-9.752 4.876-4.876 0-4.876 4.876-4.876 9.752l-82.895 136.533c0-4.876-4.876-4.876-4.876-9.752l-78.019-126.781c0-4.876-4.876-4.876-4.876-9.752-4.876 0-4.876-4.876-9.752-4.876h-63.39l117.029 185.295z" />
<glyph unicode="&#xe950;" glyph-name="zip" horiz-adv-x="780" d="M780.19-64h-780.19v1024h575.39l204.8-336.457v-687.543zM48.762-15.238h682.667v624.152l-185.295 302.324h-497.371v-926.476zM170.667 155.429h97.524v-48.762h-97.524v48.762zM268.19 204.19h97.524v-48.762h-97.524v48.762zM170.667 252.952h97.524v-48.762h-97.524v48.762zM268.19 301.714h97.524v-48.762h-97.524v48.762zM170.667 350.476h97.524v-48.762h-97.524v48.762zM268.19 399.238h97.524v-48.762h-97.524v48.762zM170.667 448h97.524v-48.762h-97.524v48.762zM268.19 496.762h97.524v-48.762h-97.524v48.762zM170.667 545.524h97.524v-48.762h-97.524v48.762zM268.19 594.286h97.524v-48.762h-97.524v48.762zM170.667 740.571h195.048v-97.524h-195.048v97.524z" />
<glyph unicode="&#xe951;" glyph-name="copy" d="M640 704v256h-448l-192-192v-576h384v-256h640v768h-384zM192 869.49v-101.49h-101.49l101.49 101.49zM64 256v448h192v192h320v-192l-192-192v-256h-320zM576 613.49v-101.49h-101.49l101.49 101.49zM960 0h-512v448h192v192h320v-640z" />
<glyph unicode="&#xe952;" glyph-name="documents, duplicate" horiz-adv-x="1030" d="M772.83 960h-354.214c-32.201 0-64.403-25.761-64.403-64.403h354.214v-257.61h257.61v-515.22h-225.409v-64.403h225.409c32.201 0 64.403 25.761 64.403 64.403v579.623l-257.61 257.61zM772.83 702.39v167.447l167.447-167.447h-167.447zM418.616 831.195v0h-354.214c-32.201 0-64.403-25.761-64.403-64.403v-772.83c0-38.642 32.201-64.403 64.403-64.403h547.421c32.201 0 64.403 25.761 64.403 64.403v579.623l-257.61 257.61zM586.063 573.585h-167.447v167.447l167.447-167.447zM611.824 0.403h-547.421v766.39h289.811v-257.61h257.61v-508.78z" />
<glyph unicode="&#xe953;" glyph-name="trash3" horiz-adv-x="832" d="M800 800h-224v89.6c0 0 0 0 0 0 0 38.4-32 70.4-70.4 70.4h-172.8c0 0 0 0 0 0-44.8 0-76.8-32-76.8-70.4v-89.6h-224c-19.2 0-32-12.8-32-32s12.8-32 32-32h44.8l70.4-736c6.4-32 32-64 70.4-64h396.8c32 0 64 25.6 64 64l76.8 736h44.8c19.2 0 32 12.8 32 32s-12.8 32-32 32zM320 889.6c0 6.4 6.4 6.4 12.8 6.4h172.8c0 0 6.4 0 6.4-6.4v-89.6h-192v89.6zM620.8 6.4c0 0 0-6.4 0 0l-403.2-6.4c0 0-6.4 0-6.4 6.4l-70.4 729.6h550.4l-70.4-729.6z" />
<glyph unicode="&#xe954;" glyph-name="mail" horiz-adv-x="1489" d="M1370.298 954.415h-1251.142c-65.808 0-119.156-53.348-119.156-119.156v-774.516c0-65.808 53.348-119.156 119.156-119.156h1251.142c65.808 0 119.156 53.348 119.156 119.156v774.516c0 65.808-53.348 119.156-119.156 119.156zM1340.509 865.047l-595.782-476.625-595.782 476.625h1191.564zM1340.509 30.953h-1191.564c-32.904 0-59.578 26.674-59.578 59.578v691.554l655.36-512.819 655.36 512.819v-691.554c0-32.904-26.674-59.578-59.578-59.578z" />
<glyph unicode="&#xe955;" glyph-name="remove" d="M896 741.76l-90.24 90.24-293.76-293.76-293.76 293.76-90.24-90.24 293.76-293.76-293.76-293.76 90.24-90.24 293.76 293.76 293.76-293.76 90.24 90.24-293.76 293.76 293.76 293.76z" />
<glyph unicode="&#xe956;" glyph-name="cursor" horiz-adv-x="1108" d="M646.155-64l-160.985 442.572-485.169 138.857 1106.429 442.572zM340.78 534.025l229.031-65.833 86.855-238.989 237.329 526.107z" />
<glyph unicode="&#xe957;" glyph-name="screencast" horiz-adv-x="1012" d="M570.457 832h-499.2c-41.142 0-76.8-35.658-76.8-76.8v-614.4c0-41.142 35.658-76.8 76.8-76.8h499.2c41.142 0 76.8 35.658 76.8 76.8v614.4c0 41.142-32.914 76.8-76.8 76.8zM710.343 626.286c68.573 38.4 219.427 142.627 244.114 142.627 35.658 0 63.086-27.427 63.086-63.086v-512.914c0-35.658-30.173-63.086-63.086-63.086-21.942 0-175.542 104.227-244.114 142.627z" />
<glyph unicode="&#xe958;" glyph-name="export" horiz-adv-x="1223" d="M147.565 32c0.185-0.005 0.402-0.007 0.62-0.007 15.776 0 28.561 12.786 28.561 28.561 0 0.003 0 0.007 0 0.007 0 11.175 31.045 288.716 465.671 288.716v-177.575c0.148-17.035 13.99-30.786 31.044-30.786 7.582 0 14.528 2.717 19.919 7.232l403.534 332.139c6.786 5.68 11.096 14.125 11.175 23.58 0.002 0.122 0.003 0.247 0.003 0.372 0 9.565-4.326 18.121-11.13 23.816l-403.009 329.113c-5.265 4.245-12.036 6.815-19.407 6.815-4.91 0-9.554-1.139-13.683-3.169-10.468-4.934-17.727-15.537-17.824-27.847v-173.864c-5.483 0.202-11.926 0.314-18.393 0.314-154.55 0-293.943-64.905-392.404-168.946-148.009-172.239-117.584-421.839-113.237-432.395 1.604-14.571 13.73-25.838 28.538-26.077zM673.463 411.367c-310.447 0-429.039-104.93-496.716-196.825 12.030 89.966 48.74 169.694 103.012 234.146 83.257 98.654 217.989 149.569 393.704 149.569 17.145 0 31.045 13.9 31.045 31.045v138.459l323.485-263.879-322.245-266.985v143.426c0 0.054 0.001 0.118 0.001 0.181 0 8.682-3.565 16.531-9.309 22.166-5.584 5.402-13.194 8.73-21.582 8.73-0.49 0-0.982-0.011-1.464-0.033z" />
<glyph unicode="&#xe959;" glyph-name="arrow-up2" d="M877.254 557.254l-320 320c-24.992 24.994-65.514 24.994-90.508 0l-320-320c-24.994-24.994-24.994-65.516 0-90.51 24.994-24.996 65.516-24.996 90.51 0l210.744 210.746v-613.49c0-35.346 28.654-64 64-64s64 28.654 64 64v613.49l210.746-210.746c12.496-12.496 28.876-18.744 45.254-18.744s32.758 6.248 45.254 18.746c24.994 24.994 24.994 65.514 0 90.508z" />
<glyph unicode="&#xe95a;" glyph-name="arrow-down2" d="M877.254 338.746l-320-320c-24.992-24.994-65.514-24.994-90.508 0l-320 320c-24.994 24.994-24.994 65.516 0 90.51 24.994 24.996 65.516 24.996 90.51 0l210.744-210.746v613.49c0 35.346 28.654 64 64 64s64-28.654 64-64v-613.49l210.746 210.746c12.496 12.496 28.876 18.744 45.254 18.744s32.758-6.248 45.254-18.746c24.994-24.994 24.994-65.514 0-90.508z" />
<glyph unicode="&#xe95b;" glyph-name="blocks" d="M64 512h384v384h-384v-384zM576 896v-384h384v384h-384zM64 0h384v384h-384v-384zM576 0h384v384h-384v-384z" />
<glyph unicode="&#xe95c;" glyph-name="list3" horiz-adv-x="1280" d="M0 896v-128h256v128h-256zM1280 768v128h-896v-128h896zM0 384h256v128h-256v-128zM384 384h896v128h-896v-128zM0 0h256v128h-256v-128zM384 0h896v128h-896v-128z" />
<glyph unicode="&#xe95d;" glyph-name="checkmark-valid" horiz-adv-x="1451" d="M1273.6 932.035l-793.6-793.6-281.6 281.6c-34.133 34.133-85.333 34.133-119.467 0s-34.133-85.333 0-119.467l341.333-341.333c17.067-17.067 34.133-25.6 59.733-25.6s42.667 8.533 59.733 25.6l853.333 853.333c34.133 34.133 34.133 85.333 0 119.467s-85.333 34.133-119.467 0z" />
<glyph unicode="&#xe95e;" glyph-name="close-media-panel" d="M922.484 914.347c-26.597 26.597-66.494 26.597-93.091 0l-352.416-352.416-352.416 352.416c-26.597 26.597-66.494 26.597-93.091 0s-26.597-66.494 0-93.091l352.416-352.416-352.416-352.416c-26.597-26.597-26.597-66.494 0-93.091 13.299-13.299 26.597-19.948 46.545-19.948s33.247 6.649 46.545 19.948l352.416 352.416 352.416-352.416c13.299-13.299 33.247-19.948 46.545-19.948s33.247 6.649 46.545 19.948c26.597 26.597 26.597 66.494 0 93.091l-352.416 352.416 352.416 352.416c26.597 26.597 26.597 66.494 0 93.091z" />
<glyph unicode="&#xe95f;" glyph-name="trash4" horiz-adv-x="788" d="M731.541 6.958c0-31.265-25.324-56.37-56.37-56.37h-562.61c-31.034 0-56.306 25.105-56.306 56.37v562.597h675.286v-562.597zM787.692 697.482h-787.692v56.1c0 31.15 25.156 56.306 56.255 56.306h168.892v56.203c0 31.047 25.105 56.37 56.255 56.37h225.044c31.034 0 56.255-25.324 56.255-56.37v-56.203h168.841c30.982 0 56.152-25.169 56.152-56.306v-56.1z" />
<glyph unicode="&#xe960;" glyph-name="x-invalid-url" d="M1001.343 936.030c-29.257 29.257-73.143 29.257-102.4 0l-387.657-387.657-387.657 387.657c-29.257 29.257-73.143 29.257-102.4 0s-29.257-73.143 0-102.4l387.657-387.657-387.657-387.657c-29.257-29.257-29.257-73.143 0-102.4 14.629-14.629 29.257-21.943 51.2-21.943s36.571 7.314 51.2 21.943l387.657 387.657 387.657-387.657c14.629-14.629 36.571-21.943 51.2-21.943s36.571 7.314 51.2 21.943c29.257 29.257 29.257 73.143 0 102.4l-387.657 387.657 387.657 387.657c29.257 29.257 29.257 73.143 0 102.4z" />
<glyph unicode="&#xe961;" glyph-name="attach2" horiz-adv-x="1088" d="M993.679 835.596c-83.457 83.457-219.625 83.457-303.082 0l-450.231-452.427c-50.514-50.514-50.514-131.775 0-182.289s131.775-50.514 182.288 0l278.923 281.12c17.57 17.57 17.57 43.925 0 61.495s-43.925 17.57-61.495 0l-281.12-278.923c-15.374-15.374-41.729-15.374-57.102 0s-15.374 41.729 0 57.102l450.231 452.427c48.317 48.317 129.579 48.317 177.896 0s48.317-129.579 0-177.896l-450.231-452.427c-83.457-83.457-217.428-83.457-298.69 0-83.457 83.457-83.457 217.428 0 298.69l404.109 404.109c17.57 17.57 17.57 43.925 0 61.495s-43.925 17.57-61.495 0l-404.109-401.913c-116.401-116.401-116.401-307.474 0-423.876s307.475-116.401 423.876 0l450.231 450.231c83.457 83.457 83.457 219.625 0 303.082v0z" />
<glyph unicode="&#xe962;" glyph-name="bold" horiz-adv-x="956" d="M808.053 408.288c27.516-18.917 49.872-42.67 67.069-71.261s25.796-62.232 25.796-100.926c0-46.433-9.781-85.663-29.343-117.693s-47.614-57.288-84.159-75.775c-38.694-19.777-83.299-33.749-133.816-41.918s-109.954-12.253-178.313-12.253h-475.287v50.302c13.328 1.29 30.095 3.224 50.302 5.804s34.394 5.589 42.563 9.029c15.907 6.449 26.763 14.94 32.567 25.473s8.706 24.183 8.706 40.951v644.894c0 15.477-2.365 28.375-7.094 38.694s-16.122 19.347-34.179 27.086c-13.328 5.589-28.805 10.211-46.432 13.865s-33.104 6.556-46.432 8.706v50.302h497.214c125.11 0 215.394-17.197 270.856-51.592s83.191-85.126 83.191-152.195c0-30.955-6.234-58.148-18.702-81.579s-30.31-43.745-53.526-60.943c-21.067-15.907-46.217-29.665-75.453-41.273s-60.62-21.281-94.155-29.020v-12.253c33.535-3.439 68.359-10.856 104.473-22.249s67.499-26.118 94.155-44.175v0zM600.397 683.658c0 50.732-14.295 90.285-42.885 118.661s-71.476 42.563-128.656 42.563c-8.169 0-18.809-0.322-31.922-0.967s-24.398-1.182-33.857-1.612v-339.214h33.534c69.649 0 121.025 16.23 154.13 48.689s49.657 76.42 49.657 131.881v0zM645.539 244.485c0 63.63-18.917 112.426-56.751 146.391s-92.22 50.947-163.158 50.947c-8.169 0-19.024-0.322-32.567-0.967s-23.539-1.182-29.988-1.612v-334.7c3.869-15.907 15.907-29.343 36.114-40.306s44.713-16.445 73.518-16.445c51.162 0 92.757 17.197 124.787 51.592s48.045 82.761 48.045 145.101v0z" />
<glyph unicode="&#xe963;" glyph-name="fontcolor" horiz-adv-x="1088" d="M36.881 100.217h1028.016v-136.533h-1028.016zM468.686 614.225l64.251 192.753h35.916l64.251-192.753h-164.418zM844.94 354.394l-183.501 581.086h-221.088l-183.501-581.086c-5.847-18.504-19.789-33.411-37.908-40.478l-53.585-20.946v-64.251h321.255v64.251l-103.573 32.125 42.791 160.627h250.129l42.791-160.627-103.637-32.125v-64.251h321.255v64.251l-53.585 20.946c-18.055 7.068-31.997 21.974-37.844 40.478v0z" />
<glyph unicode="&#xe964;" glyph-name="fontsize" horiz-adv-x="1092" d="M443.661 905.333h-385.506v-192.753h64.251l64.251 64.251h192.753v-706.761l-128.502-64.251v-64.251h385.506v64.251l-128.502 64.251v706.761h192.753l64.251-64.251h64.251v192.753zM572.163 584.078v-192.753h64.251l64.251 64.251h64.251v-385.506l-64.251-64.251v-64.251h257.004v64.251l-64.251 64.251v385.506h64.251l64.251-64.251h64.251v192.753z" />
<glyph unicode="&#xe965;" glyph-name="italic" horiz-adv-x="512" d="M467.611 74.712l-13.862-56.709c-41.587-16.383-74.772-28.879-99.556-37.491s-53.558-12.917-86.324-12.917c-50.408 0-89.579 12.287-117.513 36.861s-41.902 55.764-41.902 93.57c0 14.702 1.050 29.72 3.151 45.052s5.461 32.66 10.082 51.983l51.668 183.989c4.621 17.643 8.506 34.34 11.657 50.093s4.726 30.14 4.726 43.162c0 23.524-4.831 39.906-14.492 49.148s-28.144 13.862-55.449 13.862c-13.442 0-27.199-2.1-41.271-6.301s-26.149-8.191-36.231-11.972l13.862 56.709c34.026 13.862 66.58 25.729 97.665 35.601s60.489 14.807 88.214 14.807c49.988 0 88.529-12.077 115.623-36.231s40.641-55.553 40.641-94.2c0-7.981-0.945-22.053-2.835-42.217s-5.356-38.646-10.397-55.449l-51.668-183.359c-4.201-14.702-7.981-31.505-11.342-50.408s-5.041-33.185-5.041-42.847c0-24.364 5.461-40.956 16.383-49.778s29.825-13.232 56.709-13.232c12.602 0 26.884 2.205 42.847 6.616s27.514 8.296 34.655 11.657v0zM480.843 844.062c0-31.925-12.077-59.124-36.231-81.598s-53.243-33.71-87.269-33.71c-34.025 0-63.22 11.237-87.584 33.71s-36.546 49.673-36.546 81.598c0 31.925 12.182 59.229 36.546 81.913s53.558 34.025 87.584 34.025c34.025 0 63.115-11.342 87.269-34.025s36.231-49.988 36.231-81.913v0z" />
<glyph unicode="&#xe966;" glyph-name="link" d="M309.964-36.757c-72.282 0-138.541 30.118-192.753 78.306-108.424 108.424-108.424 277.082 0 385.506l42.165 42.165 84.329-84.329-42.165-42.165c-60.235-60.235-60.235-156.612 0-216.847s156.612-60.235 216.847 0l180.706 180.706c60.235 60.235 60.235 156.612 0 216.847l-42.165 42.165 84.329 84.329 42.165-42.165c108.424-108.424 108.424-277.082 0-385.506l-180.706-180.706c-48.188-48.188-120.471-78.306-192.753-78.306zM400.317 240.325l-42.165 42.165c-108.424 108.424-108.424 277.082 0 385.506l180.706 180.706c54.212 54.212 120.471 78.306 192.753 78.306s138.541-30.118 192.753-78.306c108.424-108.424 108.424-277.082 0-385.506l-42.165-42.165-84.329 84.329 42.165 42.165c60.235 60.235 60.235 156.612 0 216.847s-156.612 60.235-216.847 0l-180.706-180.706c-60.235-60.235-60.235-156.612 0-216.847l42.165-42.165-84.329-84.329z" />
<glyph unicode="&#xe967;" glyph-name="orderedlist" d="M331.272 890.544h662.588v-120.471h-662.588zM331.272 529.132h662.588v-120.471h-662.588zM331.272 167.721h662.588v-120.471h-662.588zM52.275 709.838v33.069l35.96 2.891c5.843 0.422 6.686 2.108 6.686 8.373v146.010c0 5-1.205 7.529-5.421 8.734l-36.382 7.529 4.578 34.334h100.412v-196.608c0-6.686 0.422-7.951 6.686-8.373l34.334-2.891v-33.069h-146.854zM32.951 348.426v37.948l54.633 53.368c41.141 39.936 58.729 56.26 58.729 79.511 0 15.059-7.349 26.082-28.973 26.082-22.408 0-31.804-7.349-31.804-36.322l-55.416 4.939c0.361 64.813 49.694 75.415 92.521 75.415 63.187 0 85.594-26.925 85.594-65.235s-26.504-63.608-56.26-92.16l-46.080-44.032h59.934c4.096 0 5.722 0.843 6.566 4.939l5.662 32.166h43.249v-76.619h-188.356zM171.318 126.622c34.093-5.24 52.947-25.66 52.947-61.741 0-53.007-39.695-77.884-97.099-77.884-40.478 0-76.619 14.456-97.039 36.924l32.045 35.298c15.3-14.878 32.105-26.443 60.235-26.443 22.468 0 41.683 8.011 41.683 36.081 0 24.456-15.24 34.515-40.117 34.515-9.999 0-17.649-0.843-29.696-2.831v40.117l19.697 2.409c28.853 3.614 44.514 17.649 44.514 43.309 0 15.3-6.807 27.708-29.274 27.708-21.685 0-32.105-7.228-32.105-35.72l-54.935 4.819c0 63.428 47.706 74.21 89.871 74.21 61.741 0 85.414-23.612 85.414-66.56 0-33.732-20.841-54.995-46.14-62.584v-1.626z" />
<glyph unicode="&#xe968;" glyph-name="quote" horiz-adv-x="1243" d="M874.576 711.137c-86.674-108.325-99.182-217.527-73.728-293.961 43.008 33.207 89.673 49.737 140.069 49.737 132.535 0 241.445-88.21 241.445-241.371 0-140.873-108.105-241.445-241.445-241.445-196.901 0-287.525 173.714-287.525 368.567 0 126.537 32.256 239.909 96.768 340.041s161.865 180.882 292.133 242.322l35.035-68.169c-78.629-33.134-146.213-85.065-202.752-155.721zM233.26 711.137c-86.747-108.325-99.255-217.527-73.728-293.961 96.256 76.434 229.961 60.416 311.442-15.653 82.286-76.873 89.381-211.968 36.864-299.52-44.178-73.582-121.71-117.906-208.238-117.906-196.974 0-287.525 173.714-287.525 368.567 0 126.537 32.256 239.909 96.768 340.041s161.865 180.882 292.059 242.322l35.035-68.169c-78.629-33.134-146.213-85.065-202.679-155.721z" />
<glyph unicode="&#xe969;" glyph-name="unorderedlist" d="M128.861 950.779c66.56 0 120.471-53.911 120.471-120.471s-53.911-120.471-120.471-120.471c-66.56 0-120.471 53.911-120.471 120.471s53.911 120.471 120.471 120.471zM128.861 589.368c66.56 0 120.471-53.911 120.471-120.471s-53.911-120.471-120.471-120.471c-66.56 0-120.471 53.911-120.471 120.471s53.911 120.471 120.471 120.471zM128.861 227.956c66.56 0 120.471-53.911 120.471-120.471s-53.911-120.471-120.471-120.471c-66.56 0-120.471 53.911-120.471 120.471s53.911 120.471 120.471 120.471zM369.802 890.544h602.353v-120.471h-602.353zM369.802 529.132h602.353v-120.471h-602.353zM369.802 167.721h602.353v-120.471h-602.353z" />
<glyph unicode="&#xe96a;" glyph-name="alert" d="M460.8 307.2h102.4v-102.4h-102.4zM460.8 716.8h102.4v-358.4h-102.4z" />
<glyph unicode="&#xe96b;" glyph-name="eye" d="M1024 438.4c0-3.2 0-3.2 0-6.4 0 0 0 0 0 0s0-3.2 0-3.2c-96-214.4-297.6-336-512-336s-416 121.6-508.8 332.8c0 0 0 3.2 0 3.2s0 0 0 3.2c0 0 0 3.2 0 6.4s0 6.4 0 9.6c0 3.2 0 6.4 0 9.6s0 3.2 0 6.4c0 0 0 0 0 0s0 3.2 0 3.2c92.8 208 297.6 332.8 508.8 332.8s416-124.8 508.8-336c0 0 0-3.2 0-3.2s0 0 0-3.2 0-3.2 0-6.4 0-6.4 0-9.6c3.2 0 3.2-3.2 3.2-3.2zM512 736c-182.4 0-361.6-99.2-448-288 86.4-192 265.6-288 448-288s361.6 96 448 288c-89.6 188.8-265.6 288-448 288zM515.2 252.8c-105.6 0-192 86.4-192 192s86.4 192 192 192c105.6 0 192-86.4 192-192s-86.4-192-192-192zM512 576c-70.4 0-128-57.6-128-128s57.6-128 128-128 128 57.6 128 128c0 70.4-57.6 128-128 128z" />
<glyph unicode="&#xe96c;" glyph-name="view-grid, grid-view" d="M384 960h-320c-38.4 0-64-25.6-64-64v-320c0-38.4 25.6-64 64-64h320c38.4 0 64 25.6 64 64v320c0 38.4-25.6 64-64 64zM960 960h-320c-38.4 0-64-25.6-64-64v-320c0-38.4 25.6-64 64-64h320c38.4 0 64 25.6 64 64v320c0 38.4-25.6 64-64 64zM960 384h-320c-38.4 0-64-25.6-64-64v-320c0-38.4 25.6-64 64-64h320c38.4 0 64 25.6 64 64v320c0 38.4-25.6 64-64 64zM384 384h-320c-38.4 0-64-25.6-64-64v-320c0-38.4 25.6-64 64-64h320c38.4 0 64 25.6 64 64v320c0 38.4-25.6 64-64 64z" />
<glyph unicode="&#xe96d;" glyph-name="view-list, list-view" d="M0 896h1024v-192h-1024zM0 512h1024v-192h-1024zM0 128h1024v-192h-1024z" />
<glyph unicode="&#xe96e;" glyph-name="up-level-2" d="M0 938.667h170.667v-170.667h-170.667zM0 512h170.667v-170.667h-170.667zM0 85.334h170.667v-170.667h-170.667zM426.667 938.667h170.667v-170.667h-170.667zM426.667 512h170.667v-170.667h-170.667zM426.667 85.334h170.667v-170.667h-170.667zM853.333 938.667h170.667v-170.667h-170.667zM853.333 512h170.667v-170.667h-170.667zM853.333 85.334h170.667v-170.667h-170.667z" />
<glyph unicode="&#xe96f;" glyph-name="up-level-list-2" d="M0 853.334h170.667v-128h-170.667zM0 512h170.667v-128h-170.667zM0 170.667h170.667v-128h-170.667zM298.667 853.334h725.333v-128h-725.333zM298.667 512h725.333v-128h-725.333zM298.667 170.667h725.333v-128h-725.333z" />
<glyph unicode="&#xe970;" glyph-name="up-level" d="M0 960h192v-192h-192zM0 544h192v-192h-192zM0 128h192v-192h-192zM416 960h192v-192h-192zM416 544h192v-192h-192zM416 128h192v-192h-192zM832 960h192v-192h-192zM832 544h192v-192h-192zM832 128h192v-192h-192z" />
<glyph unicode="&#xe971;" glyph-name="up-level-list" d="M0 864h160v-128h-160zM0 512h160v-128h-160zM0 160h160v-128h-160zM320 864h704v-128h-704zM320 512h704v-128h-704zM320 160h704v-128h-704z" />
<glyph unicode="&#xe972;" glyph-name="password-view" horiz-adv-x="1280" d="M640 832c256 0 480.64-192 570.24-384-88.96-192-314.24-384-570.24-384s-480.64 192-570.24 384c88.96 192 314.24 384 570.24 384zM640 896c-280.96 0-542.72-209.92-640-448 97.28-238.080 359.040-448 640-448s542.72 209.92 640 448c-97.28 238.080-359.040 448-640 448zM640 576c70.692 0 128-57.308 128-128s-57.308-128-128-128c-70.692 0-128 57.308-128 128s57.308 128 128 128zM640 640c-106.039 0-192-85.961-192-192s85.961-192 192-192c106.039 0 192 85.961 192 192s-85.961 192-192 192z" />
<glyph unicode="&#xe973;" glyph-name="password-hide" horiz-adv-x="1280" d="M207.36 169.6l45.44 45.44c-75.978 63.178-137.611 140.772-181.213 228.878 87.133 196.082 312.413 388.082 568.413 388.082 69.186-0.572 135.093-13.909 195.708-37.766l45.572 50.566c-71.044 31.652-153.87 50.416-240.991 51.198-281.249 0.002-542.369-209.918-640.289-447.998 48.053-110.967 118.494-204.188 206.188-277.448zM1072.64 726.4l-45.44-45.44c75.978-63.178 137.611-140.772 181.213-228.878-87.133-196.082-312.413-388.082-568.413-388.082-69.186 0.572-135.093 13.909-195.708 37.766l-45.572-50.566c71.044-31.652 153.87-50.416 240.991-51.198 281.249-0.002 542.369 209.918 640.289 447.998-48.053 110.967-118.494 204.188-206.188 277.448zM128 0l960 960 64-64-960-960z" />
</font>
</defs>
</svg>
